<svg width="997" height="624" viewBox="0 0 997 624" fill="none" xmlns="http://www.w3.org/2000/svg">
<g id="megyek">
<path id="budapest" d="M435.053 218.26L433.928 216.323L434.053 220.135L434.678 221.76L431.928 221.698L430.616 222.698H427.928L427.303 222.073L426.241 222.635L426.928 223.635L426.303 224.948L423.616 224.198H420.491L418.741 225.198L420.741 228.323L420.241 230.323L418.678 231.448L419.928 232.323L419.866 235.885L418.428 235.948L420.303 237.01L419.678 238.573L421.116 240.76L419.991 242.323L421.866 244.51L423.616 244.573L425.866 247.26L425.803 251.01L425.053 251.51L425.991 252.51L426.053 255.385L423.116 258.573L423.053 260.323L424.116 262.885L423.178 264.26H421.491L423.866 268.385L427.928 265.073L433.241 265.198L433.991 266.135L435.053 265.448L435.866 266.073L437.428 264.26L438.866 264.198L438.116 262.885L439.178 262.135L441.241 262.198L443.428 265.135L444.491 265.698L443.741 267.448L449.866 273.448L451.741 272.198L454.866 271.76L460.678 262.135L461.803 262.76L462.678 261.01L460.741 259.573L463.116 257.51L464.866 258.698L467.616 256.073L468.366 254.26L470.678 255.385L470.803 253.135L473.741 250.198H477.928V245.51L474.741 241.01L476.366 238.885L474.678 237.885L471.491 239.135L468.428 239.073L465.178 232.51L462.116 234.135L459.928 232.698L456.803 232.51L455.303 231.448V230.26L453.241 228.573L455.741 227.01L452.616 225.51H450.991V224.385L452.178 223.198L449.366 220.198L447.616 220.135L446.116 218.635H445.053L444.741 217.323L443.553 216.448L440.241 222.51L440.053 218.323L435.053 218.26Z" fill="#FFE7C4" stroke="#0C0101"/>
<path id="nograd" d="M580.032 95.0932L582.313 95.1387L584.799 98.636L586.877 99.2794L586.959 101.507L584.74 105.007L581.303 105.32L580.553 106.632L580.428 108.007L579.99 108.57H578.678L577.678 109.507H574.99L574.365 110.632L572.928 110.82L570.553 112.507L570.365 114.945L576.428 120.132L575.928 122.07L576.053 127.945L577.865 129.695L576.615 130.632L574.49 130.757L570.928 133.57L571.24 137.382L569.615 138.882L570.178 141.32L569.49 142.882H567.928L567.24 144.257L565.24 144.195L564.865 147.57L561.24 150.007L559.365 149.945L556.678 147.32L551.303 147.445L549.428 148.32L547.365 147.82L546.115 149.507L547.428 152.32L549.428 152.445L552.74 154.132L553.053 156.132L551.615 159.195H549.115L548.053 157.507L546.178 157.57V156.132L542.115 152.882L540.178 154.82L540.678 160.07L537.428 162.507L533.615 169.632L534.178 172.195L533.115 172.695L529.803 171.32L527.74 173.507H526.553L526.428 174.632L525.115 175.945V174.007L523.74 173.257L521.803 174.445V177.32L522.928 178.757L522.365 184.507L521.053 186.32L518.678 184.445L515.553 187.445H513.99L512.848 189.654L508.348 187.904L504.911 192.404L503.223 192.592L501.536 193.529L500.348 194.967L501.411 196.029L502.848 196.529L503.661 197.967L502.848 198.779L501.036 199.029L499.911 200.029L498.536 200.092L496.786 197.529L496.848 195.154L495.598 194.842L492.973 191.592L492.598 186.342L494.223 184.717L494.161 183.592L492.161 183.154L490.661 181.717L489.536 181.529L490.723 177.279L493.348 175.279L491.098 172.467H487.973L486.848 171.279L484.661 171.217L483.536 172.217L481.786 172.279L480.348 171.217H479.411L477.286 168.717L473.911 168.654L471.911 170.029L466.723 169.842L465.973 170.654L465.223 170.029L462.473 170.092L457.536 165.342H455.161L453.536 166.654L451.848 165.404H445.536L442.098 167.154L440.098 166.029L440.161 164.779L438.411 163.342L436.786 163.279L435.786 161.904V158.967L432.911 156.529L429.723 155.529L428.973 154.654L428.911 152.529L427.661 151.092L426.348 151.029L423.786 148.217V147.342L423.223 146.217H421.911L420.848 144.217L420.911 141.904L424.536 139.342L426.723 138.779L428.161 137.779L428.098 135.467L430.098 135.404L430.161 129.467L429.286 127.154L427.598 126.467L425.161 127.404L422.036 126.279L421.911 124.842L418.348 120.717L418.9 120.019L424.645 120.107L426.855 121.345L428.093 120.107V118.074H430.391L430.479 116.395L431.363 115.953L432.424 117.014L434.368 118.428H435.871L437.815 119.93L439.937 117.809H440.997L442.323 116.748L443.03 117.632H446.742L448.51 116.66L450.808 117.102L452.753 118.516L456.907 119.312L459.736 118.87L462.564 119.665L463.536 120.991L464.774 121.079L465.392 119.754V118.251L466.983 116.748L469.812 116.66L470.519 115.069L472.198 114.892L473.613 113.301L474.938 113.832L477.236 112.859L477.855 113.92L479.093 112.594L479.8 113.39L484.573 112.771L486.871 114.804L488.55 113.39H490.406L492.439 110.65L494.737 110.738L495.179 112.683L497.566 113.566L497.743 112.152L499.775 111.268V109.235L500.748 108.175V102.253L503.134 99.8662L503.841 98.5404L502.781 96.5074V93.5022L506.493 91.1158L505.874 88.1105L507.465 87.0499L510.47 86.6963L511.796 85.5473L512.857 85.7241L513.476 84.7518L514.625 84.8402L514.713 83.6911L515.42 82.7189H516.658L517.1 81.0395L520.105 78.9182L523.198 81.3046L525.055 80.1556H526.646L526.734 84.3982L527.883 85.6357L527.618 86.8731H529.12L531.242 89.0828L533.805 88.9944L535.396 87.5802L535.219 85.7241L539.108 85.6357L539.992 86.608V87.8454L541.583 88.2873L543.174 90.0551L544.854 90.1435L545.472 92.2648L543.704 94.7397L543.263 96.5958L544.323 98.5404H545.384L548.654 95.8003L551.217 96.9494L552.013 95.7119H553.516L553.427 94.2094L557.935 96.5958H560.233L560.145 99.0707L561.471 99.8662L559.968 102.518L560.763 104.197H564.211L565.448 102.518L567.216 101.457L567.304 99.0707L569.16 98.3636L570.928 96.5958L572.961 96.6842L575.082 94.4745H576.143L577.115 93.2371L578.529 93.3255L580.032 95.0932Z" fill="#FFE7C4" stroke="#0C0101"/>
<path id="heves" d="M513.991 187.448L512.842 189.655L515.217 192.592L515.404 193.53L517.529 194.717L516.717 196.467L516.779 199.03L515.342 200.717L518.092 203.842V205.842L522.904 209.905L522.967 211.467L524.529 214.53L525.779 216.155L525.717 218.717L526.592 220.717L529.982 220.88L531.982 222.88L532.107 220.192L531.419 218.692L532.982 216.442H535.482L538.044 214.442H540.857L544.919 217.192L548.232 219.942H549.482L552.857 213.88H553.732L556.982 211.13L556.919 204.755L558.044 203.88L559.482 205.505L562.732 207.13L565.107 205.817L568.107 204.88L571.044 201.942L572.732 203.38L574.419 202.63L576.232 205.067L576.044 212.567L578.232 215.567L578.482 217.255L576.794 218.005L576.982 219.567L578.294 221.38L578.357 222.192L579.794 224.067L581.544 224.13L582.794 225.567L592.419 227.692L594.669 225.442L593.982 224.255H592.669L592.232 222.755L590.857 221.192V219.942L593.794 220.005L601.044 217.255L602.419 216.192L605.919 216.63L606.232 219.255L609.482 225.755L613.482 228.317L613.607 229.317L615.857 230.755L618.607 231.067L620.544 237.067L617.919 241.942L617.982 243.692L619.169 243.755L620.357 245.942L623.857 248.817L625.982 252.005L629.544 252.192L631.544 251.255L632.357 252.88L632.294 255.505L633.794 256.88H637.357L642.357 252.067L642.232 249.005L644.169 248.442L645.482 246.755L649.419 246.88L650.857 245.942L650.732 243.817L652.107 241.88V240.067L653.232 239.192H654.294L657.044 237.13L659.982 236.38L661.607 235.192L662.294 233.317L663.232 232.317L668.669 230.13L673.482 226.255V223.442L676.857 223.88L679.857 221.067L679.732 219.567L678.357 218.567L678.294 216.63L681.169 214.067L681.107 212.067L679.794 210.442L680.857 208.567L683.107 207.942H686.294L687.857 206.442L687.42 203.86L682.862 201.442L678.885 197.443L675.492 198.21L674.091 197.519L672.77 198.333L668.684 198.292L665.826 196.029L664.001 195.936L661.693 192.642L659.176 192.439L659.098 189.986L661.456 186.72L659.628 184.454L657.486 183.876L657.283 182.423L653.891 180.032L652.062 179.454L651.46 177.071L648.233 172.251L648.193 169.868L649.904 167.736L649.989 165.228L648.199 162.595L648.096 159.796L645.679 159.31L642.326 158.136L641.964 156.681L639.722 154.462L641.788 151.534L646.202 150.675L647.591 148.749L647.603 146.98L649.495 146.204L647.08 143.384L644.415 142.001L642.438 139.306L640.086 137.548L643.921 133.353L644.654 125.775L645.802 124.829L645.762 122.259L643.785 119.564L646.808 115.243L644.331 111.485L644.416 106.54L643.189 105.22L643.336 102.649L641.047 101.517L641.13 99.6524L638.837 97.7257L636.802 98.7294L634.328 98.8335L633.47 97.8567L631.138 99.0035L631.036 101.636L629.375 103.388L629.326 104.705L627.565 105.935L626.931 110.548L625.699 110.412L624.148 108.803L622.809 108.381L619.867 104.789L618.356 105.831L616.595 105.186L615.279 106.745L615.147 109.441L614.146 110.416L611.559 110.495L611.17 111.642L606.477 111.521L605.073 110.356L603.555 110.131L603.489 108.919L601.356 107.627L599.432 107.563L598.858 106.463L598.887 103.918L597.967 102.086L594.897 100.913L590.89 100.865L589.445 102.005L586.876 99.2853L586.959 101.51L584.741 105.01L581.303 105.323L580.553 106.635L580.428 108.01L579.991 108.573H578.678L577.678 109.51H574.991L574.366 110.635L572.928 110.823L570.553 112.51L570.366 114.948L576.428 120.135L575.928 122.073L576.053 127.948L577.866 129.698L576.616 130.635L574.491 130.76L570.928 133.573L571.241 137.385L569.616 138.885L570.178 141.323L569.491 142.885H567.928L567.241 144.26L565.241 144.198L564.866 147.573L561.241 150.01L559.366 149.948L556.678 147.323L551.303 147.448L549.428 148.323L547.366 147.823L546.116 149.51L547.428 152.323L549.428 152.448L552.741 154.135L553.053 156.135L551.616 159.198H549.116L548.053 157.51L546.178 157.573V156.135L542.116 152.885L540.178 154.823L540.678 160.073L537.428 162.51L533.616 169.635L534.178 172.198L533.116 172.698L529.803 171.323L527.741 173.51H526.553L526.428 174.635L525.116 175.948V174.01L523.741 173.26L521.803 174.448V177.323L522.928 178.76L522.366 184.51L521.053 186.323L518.678 184.448L515.553 187.448H513.991Z" fill="#FFE7C4" stroke="#0C0101"/>
<path id="jnsz" d="M687.866 206.448L687.424 203.863L687.794 201.094L691.91 198.744L695.98 201.731L697.237 203.843L696.043 204.715L695.469 210.24L696.839 211.477L696.75 213.952L699.269 217.267L700.684 217.355L703.777 220.095L708.462 220.139L710.406 218.813L712.307 218.592L714.207 217.046L715.356 218.106L717.566 218.416L720.35 220.979L721.808 224.028L721.19 226.15L722.206 229.553L720.041 233.265L720.129 235.121L721.853 237.021L721.897 238.657L723.576 239.32L722.073 241.883L721.985 245.949L723.223 247.451L723.267 251.164L724.283 253.638L724.239 256.113L725.697 259.074L725.432 261.107L726.228 262.919L726.139 266.057L727.775 267.781L726.935 291.999L723.753 293.502L723.62 294.916L720.92 295.665L719.045 298.227V299.852L716.857 301.852L716.795 304.977L716.045 306.04L714.42 305.04L711.964 306.524L710.982 308.29H709.295L702.357 315.602L704.795 318.477L704.857 320.165L703.295 320.227L701.795 321.915L703.232 326.852L701.482 329.602L703.232 331.727L701.545 332.477L700.732 334.352L696.482 337.227V338.415L689.982 338.54L690.045 335.477L687.482 335.54L684.045 338.415H683.357L681.732 340.29L681.795 343.165L683.42 346.727L681.982 350.352L682.545 351.477L683.982 352.415L684.42 353.79L683.92 355.352L685.232 356.415V360.165L682.607 363.04L682.67 364.29L677.42 365.54L672.67 368.79L666.482 364.352L663.982 365.415H661.232L660.107 364.477L658.357 365.665V368.165L651.107 371.352L645.607 369.04L643.232 373.79L638.42 378.415L639.607 380.602L639.42 382.977L640.67 384.727L640.545 387.227L641.42 388.165L641.732 389.665L639.949 391.602L638.491 391.735L637.033 393.9L630.801 394.21L629.343 396.066L629.387 397.701L628.194 399.16H625.144L621.034 397.966L620.018 396.331L619.487 394.342L617.499 393.503L616.173 392.265L612.858 391.249L610.03 393.37L610.737 394.608L609.809 395.27L608.395 394.652L606.539 396.729L605.169 400.618H602.649L600.042 399.602L597.788 397.657L597.125 396.066L595.092 394.917L593.059 396.287L593.192 398.231L591.557 398.718L591.468 395.536L590.363 394.21H588.198L587.181 392.928L587.321 389.141L586.602 387.985L584.696 387.829L583.509 389.11L583.477 391.61L581.727 393.235L577.79 388.423L577.977 386.548L581.415 384.485L585.602 384.423L588.102 382.985L594.415 383.173L594.727 381.36L592.727 379.173L590.915 378.11L590.977 375.423L593.102 374.235L594.415 372.923L596.102 369.36L597.977 367.923L599.727 367.985L601.227 366.61L601.29 363.673L600.29 361.985L598.227 361.798L596.602 360.235L593.915 362.11L592.165 359.735L592.665 358.735L597.102 356.61L596.977 352.548L597.727 351.11L599.227 350.923L597.04 350.485L596.352 349.298L594.415 348.735L591.477 346.985L593.915 342.417L594.102 339.604L590.727 338.542L589.352 331.354L585.54 325.792L586.54 324.292L584.29 321.604L585.165 319.667L585.29 316.417L589.102 312.917L590.165 310.542L591.602 308.979L590.977 307.729V305.229L589.102 303.229L589.04 300.792L585.602 298.604L584.977 296.979L580.727 295.167L575.852 294.229L576.29 289.229L578.852 285.417L578.79 282.354L575.29 276.917V274.042L573.977 272.479L572.977 272.354V270.042L570.415 268.042L567.852 267.667L565.352 264.979L562.727 264.917L558.852 261.667V260.917L557.665 259.667L555.04 259.542L552.727 256.979L550.415 256.417L550.29 254.229L549.165 252.854L549.29 250.729L547.165 249.354L541.54 244.667L538.915 244.167V243.167L542.352 239.042L543.352 236.542L544.665 234.292L543.665 232.917L537.04 233.042L532.852 236.979H531.977L529.852 233.604L527.415 232.542L525.477 230.729V227.979L524.852 227.042L526.477 223.729L526.602 220.729L529.991 220.885L531.991 222.885L532.116 220.198L531.428 218.698L532.991 216.448H535.491L538.053 214.448H540.866L544.928 217.198L548.241 219.948H549.491L552.866 213.885H553.741L556.991 211.135L556.928 204.76L558.053 203.885L559.491 205.51L562.741 207.135L565.116 205.823L568.116 204.885L571.053 201.948L572.741 203.385L574.428 202.635L576.241 205.073L576.053 212.573L578.241 215.573L578.491 217.26L576.803 218.01L576.991 219.573L578.303 221.385L578.366 222.198L579.803 224.073L581.553 224.135L582.803 225.573L592.428 227.698L594.678 225.448L593.991 224.26H592.678L592.241 222.76L590.866 221.198V219.948L593.803 220.01L601.053 217.26L602.428 216.198L605.928 216.635L606.241 219.26L609.491 225.76L613.491 228.323L613.616 229.323L615.866 230.76L618.616 231.073L620.553 237.073L617.928 241.948L617.991 243.698L619.178 243.76L620.366 245.948L623.866 248.823L625.991 252.01L629.553 252.198L631.553 251.26L632.366 252.885L632.303 255.51L633.803 256.885H637.366L642.366 252.073L642.241 249.01L644.178 248.448L645.491 246.76L649.428 246.885L650.866 245.948L650.741 243.823L652.116 241.885V240.073L653.241 239.198H654.303L657.053 237.135L659.991 236.385L661.616 235.198L662.303 233.323L663.241 232.323L668.678 230.135L673.491 226.26V223.448L676.866 223.885L679.866 221.073L679.741 219.573L678.366 218.573L678.303 216.635L681.178 214.073L681.116 212.073L679.803 210.448L680.866 208.573L683.116 207.948H686.303L687.866 206.448Z" fill="#FFE7C4" stroke="#0C0101"/>
<path id="pest" d="M593.928 342.448L591.491 347.011L588.866 344.761L587.366 344.198L584.928 345.886L582.928 345.948L580.928 347.886L577.803 348.136L573.866 352.948L575.116 355.511L574.303 356.386H572.866L571.366 355.011L566.866 354.948L565.491 352.636L563.741 352.573L559.116 349.761L554.741 360.198H553.428L552.678 361.073L551.741 361.011L548.491 358.136L544.866 360.198L537.741 353.636L529.866 349.511L524.303 342.698L522.491 337.636L522.241 335.386L520.991 332.886V330.448L516.053 322.886L512.991 325.761L504.053 323.573L501.991 328.323L501.866 331.761L500.241 334.823L499.678 337.886L494.928 336.823L493.116 335.448L485.241 341.448L480.678 343.136H478.678L476.553 345.511L472.866 341.448L474.303 337.136L476.616 333.011L478.241 332.823V331.386L479.241 330.761L479.928 329.136L476.053 323.823L473.366 323.073L468.741 321.011L468.116 319.948L464.553 321.261L462.991 323.323L462.116 327.261L459.928 329.386L458.866 328.698L453.616 328.761L448.116 334.073L445.241 335.011L443.491 336.698L443.428 339.136L440.303 340.573L439.366 341.573L435.741 339.698H433.366L432.116 337.698L427.803 337.573L425.241 335.761H423.178L423.116 337.448L425.366 340.261L424.741 341.573L423.428 341.823L415.63 333.477L414.039 333.344L413.995 330.958L411.873 326.715L412.006 320.881L410.813 318.009L410.724 309.523L411.741 308.065L411.696 305.767L415.276 301.082L415.32 298.607L416.248 297.282L416.16 294.762L417.088 293.348L417.442 290.52L416.69 289.813L413.376 289.901L410.724 288.354L411.652 287.117L411.696 285.04L408.205 283.405L409.398 281.46L408.294 278.808L406.968 277.35L404.581 276.245L401.62 273.417L401.532 271.958L398.438 268.732L395.919 264.534L393.798 262.368L393.754 261.263L395.477 259.098L397.068 258.523L397.996 257.374L397.952 250.568L397.333 248.889L393.798 245.265L393.842 243.983L392.605 242.702L391.058 243.762L388.274 240.934L387.787 239.078L386.771 237.531L385.003 236.249L384.959 233.686L384.031 232.405L383.943 229.753L385.047 228.206L385.092 226.438L384.379 225.192L384.423 223.513L388.18 220.065L388.312 217.237L391.538 215.955L391.583 214.32L395.162 211.536L397.549 210.917L395.693 209.415L395.649 208.133L394.102 207.117L394.058 205.835L398.035 204.597L400.687 205.614L402.322 207.249L404.266 208.133L409.128 208.045L408.553 207.161L408.818 203.095L407.183 200.001L407.935 196.377L409.128 195.007L410.1 195.582L413.238 193.151L418.409 196.156L420.132 194.742L420.088 193.107L417.657 190.632L417.525 188.909L418.629 186.08L416.508 183.428L414.829 180.247L415.536 176.313L414.564 174.943L411.956 174.987L408.907 173.794L407.316 172.336L407.303 170.823L405.428 169.573L403.803 167.635L403.241 164.823L400.616 163.385H398.866L397.053 161.51L394.491 160.135L394.428 156.26L393.553 154.51L394.428 152.948V149.573L396.741 146.385L395.428 144.573L396.741 141.698L394.678 140.51L393.116 138.885L396.303 135.323H401.053L402.803 133.448L402.866 131.51L401.928 129.948V128.448L404.303 126.073L404.241 123.135L407.116 121.635H409.428L410.741 122.76L413.616 120.823L415.803 121.948L418.366 120.76L421.928 124.885L422.053 126.323L425.178 127.448L427.616 126.51L429.303 127.198L430.178 129.51L430.116 135.448L428.116 135.51L428.178 137.823L426.741 138.823L424.553 139.385L420.928 141.948L420.866 144.26L421.928 146.26H423.241L423.803 147.385V148.26L426.366 151.073L427.678 151.135L428.928 152.573L428.991 154.698L429.741 155.573L432.928 156.573L435.803 159.01V161.948L436.803 163.323L438.428 163.385L440.178 164.823L440.116 166.073L442.116 167.198L445.553 165.448H451.866L453.553 166.698L455.178 165.385H457.553L462.491 170.135L465.241 170.073L465.991 170.698L466.741 169.885L471.928 170.073L473.928 168.698L477.303 168.76L479.428 171.26H480.366L481.803 172.323L483.553 172.26L484.678 171.26L486.866 171.323L487.991 172.51H491.116L493.366 175.323L490.741 177.323L489.553 181.573L490.678 181.76L492.178 183.198L494.178 183.635L494.241 184.76L492.616 186.385L492.991 191.635L495.616 194.885L496.866 195.198L496.803 197.573L498.553 200.135L499.928 200.073L501.053 199.073L502.866 198.823L503.678 198.01L502.866 196.573L501.428 196.073L500.366 195.01L501.553 193.573L503.241 192.635L504.928 192.448L508.366 187.948L512.866 189.698L515.241 192.635L515.428 193.573L517.553 194.76L516.741 196.51L516.803 199.073L515.366 200.76L518.116 203.885V205.885L522.928 209.948L522.991 211.51L524.553 214.573L525.803 216.198L525.741 218.76L526.616 220.76L526.491 223.76L524.866 227.073L525.491 228.01V230.76L527.428 232.573L529.866 233.635L531.991 237.01H532.866L537.053 233.073L543.678 232.948L544.678 234.323L543.366 236.573L542.366 239.073L538.928 243.198V244.198L541.553 244.698L547.178 249.385L549.303 250.76L549.178 252.885L550.303 254.26L550.428 256.448L552.741 257.01L555.053 259.573L557.678 259.698L558.866 260.948V261.698L562.741 264.948L565.366 265.01L567.866 267.698L570.428 268.073L572.991 270.073V272.385L573.991 272.51L575.303 274.073V276.948L578.803 282.385L578.866 285.448L576.303 289.26L575.866 294.26L580.741 295.198L584.991 297.01L585.616 298.635L589.053 300.823L589.116 303.26L590.991 305.26V307.76L591.616 309.01L590.178 310.573L589.116 312.948L585.303 316.448L585.178 319.698L584.303 321.635L586.553 324.323L585.553 325.823L589.366 331.385L590.741 338.573L594.116 339.635L593.928 342.448ZM435.053 218.26L433.928 216.323L434.053 220.135L434.678 221.76L431.928 221.698L430.616 222.698H427.928L427.303 222.073L426.241 222.635L426.928 223.635L426.303 224.948L423.616 224.198H420.491L418.741 225.198L420.741 228.323L420.241 230.323L418.678 231.448L419.928 232.323L419.866 235.885L418.428 235.948L420.303 237.01L419.678 238.573L421.116 240.76L419.991 242.323L421.866 244.51L423.616 244.573L425.866 247.26L425.803 251.01L425.053 251.51L425.991 252.51L426.053 255.385L423.116 258.573L423.053 260.323L424.116 262.885L423.178 264.26H421.491L423.866 268.385L427.928 265.073L433.241 265.198L433.991 266.135L435.053 265.448L435.866 266.073L437.428 264.26L438.866 264.198L438.116 262.885L439.178 262.135L441.241 262.198L443.428 265.135L444.491 265.698L443.741 267.448L449.866 273.448L451.741 272.198L454.866 271.76L460.678 262.135L461.803 262.76L462.678 261.01L460.741 259.573L463.116 257.51L464.866 258.698L467.616 256.073L468.366 254.26L470.678 255.385L470.803 253.135L473.741 250.198H477.928V245.51L474.741 241.01L476.366 238.885L474.678 237.885L471.491 239.135L468.428 239.073L465.178 232.51L462.116 234.135L459.928 232.698L456.803 232.51L455.303 231.448V230.26L453.241 228.573L455.741 227.01L452.616 225.51H450.991V224.385L452.178 223.198L449.366 220.198L447.616 220.135L446.116 218.635H445.053L444.741 217.323L443.553 216.448L440.241 222.51L440.053 218.323L435.053 218.26Z" fill="#FFE7C4" stroke="#0C0101"/>
<path id="fejer" d="M384.404 225.191L385.093 226.295L385.048 228.063L383.944 229.609L384.032 232.261L384.96 233.543L385.004 236.106L386.772 237.388L387.788 238.934L388.275 240.79L391.059 243.619L392.606 242.558L393.843 243.84L393.799 245.122L397.334 248.745L397.953 250.425L397.997 257.231L397.069 258.38L395.478 258.954L393.755 261.12L393.799 262.225L395.92 264.39L398.439 268.589L401.533 271.815L401.621 273.273L404.582 276.102L406.969 277.207L408.295 278.665L409.399 281.317L408.206 283.261L411.697 284.896L411.653 286.973L410.725 288.211L413.377 289.758L416.691 289.669L417.443 290.376L417.089 293.205L416.161 294.619L416.249 297.138L415.321 298.464L415.277 300.939L411.697 305.623L411.742 307.921L410.725 309.38L410.814 317.865L412.007 320.738L411.874 326.571L413.996 330.814L414.04 333.201L415.631 333.333L423.429 341.68L423.791 343.672L425.103 345.797L421.791 350.235L421.728 354.672L422.666 356.297L423.978 361.735L423.916 367.485L422.541 369.797L421.978 371.86L420.416 373.235L420.353 374.422L418.478 376.922L418.541 379.297L417.67 380.435L415.748 379.83L414.186 380.892L410.373 380.83L408.936 381.705L409.811 382.517L409.936 383.58L410.561 384.267L408.686 386.955V388.267L406.436 389.205L402.248 394.08L399.373 394.955L397.936 396.08L398.936 397.392L398.186 399.08L394.623 399.142L393.186 399.83L392.436 399.767L390.936 401.142L388.561 401.08L386.873 402.892L388.373 404.58L388.498 407.642L389.123 408.705L387.748 410.142L384.998 411.08L383.561 414.205L381.498 415.205L378.436 415.142L377.686 416.642L375.186 416.83L374.248 416.08L373.936 412.267L373.061 411.455L372.998 409.205L373.686 408.392L371.748 407.267L371.686 404.517L369.623 404.142L369.061 403.142L367.123 403.017L365.748 401.392L365.436 399.892L363.311 397.767V395.767L361.373 396.33L357.561 399.142H356.436L355.623 400.83L356.811 402.767L355.748 404.205L352.623 404.267L351.623 403.392L349.123 405.955L347.123 405.83L342.748 402.392L343.936 398.392L342.061 395.767L340.873 397.08L337.623 395.142L337.498 393.705L335.186 395.517V396.767L333.061 396.705L331.061 394.83H328.936L326.748 392.767L326.873 389.705L325.498 388.455L320.248 392.33L319.998 393.83L318.498 394.392L317.873 395.642H315.811L314.936 396.705L313.561 395.705L311.936 395.893L310.436 393.643L310.123 385.768L311.311 384.456L310.186 383.018L310.311 378.768L311.123 377.456L309.811 375.393L312.623 373.206L309.498 365.643L308.936 363.081L306.623 360.081L307.637 358.18L309.512 357.993L310.45 357.243L310.325 356.055L311.512 354.43L311.575 352.743L312.887 350.805L313.012 348.618L315.575 347.43L316.95 344.93L315.325 343.055L314.075 340.493L312.2 338.618L312.637 336.18L311.45 331.555L314.95 328.555L315.887 327.493L315.012 326.055L314.95 321.618L313.887 320.43L313.95 317.368L312.762 315.68L312.7 313.68L314.825 310.93L313.762 307.93L314.762 306.618L315.137 302.93L313.887 299.93L309.7 299.805L307.512 297.555L307.262 295.368L305.825 293.305L305.7 291.93L304.325 290.68L300.387 292.555L298.512 294.68H297.262L296.762 293.43L295.387 293.68L295.325 291.493L293.7 290.555L293.137 289.43L292.825 287.618H291.512L289.825 288.868L289.45 288.305L289.168 282.194L291.024 280.426V279.189L289.168 279.1L287.842 278.217L288.019 276.493L287 275.042L291.419 271.86L293.275 271.816L294.911 270.843L292.966 269.164L293.85 267.794L294.469 264.391L296.104 264.303L298.269 262.225L298.225 258.204L299.639 256.171L298.623 253.475V252.149L300.567 252.193L301.628 251.044L302.645 251L303.794 253.077L305.429 253.166L307.064 251.707L309.185 252.149L310.202 251.133L310.025 245.962L312.632 245.874L314.312 248.481L317.847 250.028L316.787 251.089L317.759 252.193L317.626 253.917L318.864 254.094L321.25 256.701L322.355 256.834V257.629L326.288 261.562L328.675 261.783L330.752 259.176L331.636 259.706H333.713L337.204 258.115L336.276 256.701L334.906 256.082L334.376 254.58L334.288 252.017L336.851 248.923L338.574 249.763L339.635 251.707L342.022 249.984V248.172L344.496 246.05L344.408 244.725L346.574 242.515L347.855 243.841L349.137 243.929L351.479 246.36L352.761 246.757L353.645 243.487L356.915 241.233L360.097 244.592L362.174 244.459L360.318 242.78V240.438L359.434 240.482L355.678 236.946V233.013L353.821 230.892L353.777 229.831L355.28 228.019H357.269L361.246 229.654L361.29 228.108L363.323 226.207L365.621 226.163L366.859 225.102L369.201 225.014L370.217 226.03L373.267 226.517L374.99 225.147L384.404 225.191Z" fill="#FFE7C4" stroke="#0C0101"/>
<path id="veszprem" d="M307.616 358.198L306.588 360.102L304.025 357.414L302.338 358.477L291.525 354.852L289.713 355.977H288.775L286.588 358.227L284.963 358.164L276.963 361.164L274.963 362.789L271.775 363.602L269.088 365.102L267.025 365.164L267.15 366.852L268.65 368.789L265.4 374.227L263.65 374.164L262.838 375.727L260.963 375.664L258.713 374.102L249.338 380.039L244.088 381.164L242.525 382.102H240.4L240.088 383.477L236.275 384.852L231.088 387.602L229.588 386.289L230.213 388.164L214.838 395.102L211.4 395.852L208.088 399.102L206.588 399.039L205.65 400.289L199.338 400.352L198.525 401.164L193.963 401.102L193.86 399.496L184.756 391.011L184.8 387.961L183.298 385.884L182.237 385.752L182.016 384.249L180.248 383.586L180.999 381.023L180.778 378.681L181.839 377.399L181.707 375.941L179.85 373.598L180.823 371.389L179.276 369.135L177.641 369.002L177.331 366.616L176.138 365.157L173.486 363.61L171.94 364.804L168.581 364.185L166.769 362.903L166.062 361.136L166.769 359.324L168.272 357.644L168.227 355.567L169.332 354.683V353.446L167.167 350.485L166.813 348.408L163.631 345.358L162.129 345.447L160.449 347.17L159.079 347.082L157.886 345.889H153.776L153.732 343.016L151.654 342.928L149.445 340.011L147.81 339.083L146.307 336.696L144.186 336.122L144.017 332.419L146.879 332.242L148.348 331.093H150.116L151.177 330.209H151.972L154.665 327.885L158.071 330.209L159.662 330.563L160.811 331.977L161.872 331.535L165.849 327.823L165.938 326.408L164.347 323.58L165.407 321.459L163.905 317.923L163.64 315.006L162.402 312.973V310.852L165.054 307.67L164.524 306.433V303.162L165.849 300.864L164.789 300.157L165.673 299.008V295.561L164.7 290.169L163.64 289.55L163.551 287.076L164.435 285.661H165.319L166.468 284.424V281.507L167.971 280.181V278.944L170.446 276.734L175.219 277.176L177.163 274.878L173.981 271.696L172.125 271.608L169.473 269.575L167.706 268.956L162.667 262.769L164.789 260.559L163.551 259.675L161.518 255.875L160.634 252.162L161.296 251.014L163.671 250.264L165.171 251.764L167.171 252.327L168.733 251.452L172.483 252.202L173.921 253.327L178.171 253.389L179.171 252.327L182.296 252.139L182.421 251.139L188.046 251.014L191.233 247.764L191.296 246.327L192.108 245.577L191.796 243.389L193.046 242.264H195.233L197.108 243.577V245.764L198.046 247.827L199.421 248.827L200.046 251.077L200.108 253.264L201.733 254.702H203.858L205.546 255.514L206.733 252.952L208.358 253.014L209.358 251.202L209.296 249.389L211.733 245.889L214.046 247.702L213.983 249.014L217.671 251.389L219.921 248.514L218.796 246.702L221.671 245.452L224.296 248.139L226.671 246.639L229.546 249.889L230.921 248.952L232.358 248.827V245.639L234.358 245.702L236.233 247.077L238.858 245.889L240.421 247.702L239.483 249.452L241.733 249.702L241.608 247.202L243.483 245.202L246.921 249.077L246.421 250.764L247.608 252.014L246.858 252.764L250.171 256.952L251.233 259.389L249.858 262.077L250.921 264.014L247.733 264.889L247.796 266.264L245.483 269.764L241.358 270.639L241.421 272.639L240.233 273.952L242.171 277.014L240.983 278.202L243.608 279.327H245.421L246.671 281.827L246.546 285.577L248.046 287.139L247.046 289.077L249.921 287.764L248.608 279.077L250.608 277.264L251.233 278.139H255.046L254.983 276.327L257.671 273.577V271.889L255.983 269.702L260.858 266.139H263.858L265.483 264.202L266.559 264.933L268.062 265.243L269.697 263.74H272.039L274.514 266.569L274.558 267.718L272.702 269.353L275.619 271.96L276.326 275.142L279.464 274.789L281.099 275.938L282.425 274.921L286.977 275.054L287.997 276.51L287.82 278.234L289.146 279.118L291.002 279.206V280.444L289.146 282.211L289.428 288.323L289.803 288.885L291.491 287.635H292.803L293.116 289.448L293.678 290.573L295.303 291.51L295.366 293.698L296.741 293.448L297.241 294.698H298.491L300.366 292.573L304.303 290.698L305.678 291.948L305.803 293.323L307.241 295.385L307.491 297.573L309.678 299.823L313.866 299.948L315.116 302.948L314.741 306.635L313.741 307.948L314.803 310.948L312.678 313.698L312.741 315.698L313.928 317.385L313.866 320.448L314.928 321.635L314.991 326.073L315.866 327.51L314.928 328.573L311.428 331.573L312.616 336.198L312.178 338.635L314.053 340.51L315.303 343.073L316.928 344.948L315.553 347.448L312.991 348.635L312.866 350.823L311.553 352.76L311.491 354.448L310.303 356.073L310.428 357.26L309.491 358.01L307.616 358.198Z" fill="#FFE7C4" stroke="#0C0101"/>
<path id="tolna" d="M313.553 395.76L311.928 395.949L311.178 396.824L309.241 396.949L307.803 398.136L306.073 398.178L305.189 399.769L306.117 404.63L303.333 404.763L302.802 404.056L300.637 405.779L297.367 407.238L298.295 408.608L298.25 410.508L299.223 411.878L299.311 418.463L297.941 419.789L296.218 420.717L295.466 422.175L296.262 423.855L293.345 425.888L293.477 428.937L291.71 429.6L290.826 431.942L293.053 436.574L291.303 440.261V442.511L288.428 444.761L286.116 444.136L285.303 445.449L285.491 447.699L284.178 449.511L284.116 452.324L285.741 454.949L285.178 458.636L286.428 460.074L286.366 462.261L287.741 464.324V466.011L289.366 469.324L289.428 472.761L287.616 473.636L286.741 474.636H284.866L283.928 476.324L280.928 478.574L281.303 481.199L286.741 481.011L289.053 483.886L289.116 485.699L290.866 485.949L291.928 489.074V494.136L289.991 497.011L289.803 498.386L290.741 498.886L291.152 500.34L293.84 499.652L296.59 504.215L298.59 502.84V501.652L296.902 501.527L295.402 499.215V496.402L297.465 496.34L298.902 495.465L300.09 496.59L302.59 496.527L305.527 493.777L308.027 493.152L309.09 491.34L309.152 488.527L307.215 485.59L307.34 479.527L311.715 477.34L313.777 478.215L316.152 477.277L317.34 478.09L318.84 478.152L320.715 476.465L323.965 477.277L324.965 475.84L327.34 475.777L330.59 479.34L329.34 482.59L329.84 484.277L331.84 487.652L333.027 487.59L335.09 488.715L337.027 490.965L336.965 492.902L335.09 494.402L335.152 501.59L336.652 501.965L338.465 503.652L340.402 503.59L341.623 505.656L340.606 506.54L339.546 511.622L338.087 514.097L336.806 514.362L335.922 515.113L332.828 516.395L332.872 517.898L334.684 519.577H336.143L337.248 518.207L338.75 516.837L340.872 515.953L342.065 514.318H343.037L344.628 512.859L345.998 512.55L346.661 511.136L347.899 510.65L351.257 507.114L350.462 505.877L351.522 503.932L351.39 502.341L353.865 502.916L355.191 502.43L356.826 504.993L356.914 506.23L357.886 507.159L359.433 507.203L360.273 512.373L358.196 514.627L358.24 515.997L361.024 517.146L361.687 518.472L363.19 518.605L364.692 517.191L365.09 518.428L364.118 519.179L364.206 522.273L365.399 522.361L366.725 523.157L367.432 524.571L367.565 525.897L368.67 525.941L370.261 524.924L372.029 527.002H373.178L380.558 535.31L380.47 536.592L381.884 538.183L385.022 538.227L386.038 539.464L388.248 539.553L391.38 541.664L394.239 540.897L395.631 542.289L398.113 542.698L400.323 541.991L400.499 539.87L402.532 538.367L402.797 536.334L404.565 535.096L404.477 529.882L405.449 528.202V526.523L406.863 524.49L408.896 523.606V519.717L403.328 521.573L403.151 520.424L404.477 517.065L407.482 514.944L408.985 515.209L409.692 511.585L408.366 508.492L409.338 506.989L413.581 510.613L414.995 509.641L414.907 507.961L416.321 506.105L416.409 502.658L417.558 499.564L416.851 496.294L414.111 494.703L414.288 493.024L413.227 491.786L413.404 484.538L411.725 481.622V477.291L413.404 474.02L415.702 472.164L417.116 468.098L417.293 462.618L416.498 458.906L414.995 457.58L414.465 454.663L412.874 451.658L414.376 448.83L414.288 447.592L413.227 445.913L413.316 442.554L411.636 439.814L409.692 439.195L408.719 437.604L408.808 435.836L407.394 434.245L408.985 432.654L411.459 427.616L412.975 426.865L415.037 428.24L416.412 428.178L417.037 427.24H419.037L420.725 424.99L423.162 424.928L426.287 421.74L428.6 416.99L430.475 415.553L430.6 412.365L427.35 407.928L427.225 405.615L426.225 404.115L426.162 400.865L424.975 398.803L424.537 396.803L421.787 393.49L421.537 392.428L417.162 387.803L417.662 380.49L415.741 379.885L414.178 380.948L410.366 380.885L408.928 381.76L409.803 382.573L409.928 383.635L410.553 384.323L408.678 387.01V388.323L406.428 389.26L402.241 394.135L399.366 395.01L397.928 396.135L398.928 397.448L398.178 399.135L394.616 399.198L393.178 399.885L392.428 399.823L390.928 401.198L388.553 401.135L386.866 402.948L388.366 404.635L388.491 407.698L389.116 408.76L387.741 410.198L384.991 411.135L383.553 414.26L381.491 415.26L378.428 415.198L377.678 416.698L375.178 416.885L374.241 416.135L373.928 412.323L373.053 411.51L372.991 409.26L373.678 408.448L371.741 407.323L371.678 404.573L369.616 404.198L369.053 403.198L367.116 403.073L365.741 401.448L365.428 399.948L363.303 397.823V395.823L361.366 396.385L357.553 399.198H356.428L355.616 400.885L356.803 402.823L355.741 404.26L352.616 404.323L351.616 403.448L349.116 406.01L347.116 405.885L342.741 402.448L343.928 398.448L342.053 395.823L340.866 397.135L337.616 395.198L337.491 393.76L335.178 395.573V396.823L333.053 396.76L331.053 394.885H328.928L326.741 392.823L326.866 389.76L325.491 388.51L320.241 392.385L319.991 393.885L318.491 394.448L317.866 395.698H315.803L314.928 396.76L313.553 395.76Z" fill="#FFE7C4" stroke="#0C0101"/>
<path id="ke" d="M266.563 264.931L265.491 264.197L264.054 262.822L263.929 259.947L266.304 257.635L266.366 256.197L267.366 254.885L267.304 253.135L266.179 253.01L265.241 251.697L265.304 250.135L263.866 249.197L263.554 245.822L265.491 244.447L265.429 242.072L269.116 239.697L269.179 238.635L267.116 237.01L267.054 234.76L265.804 233.385L267.179 231.01L270.679 231.135L272.866 229.197L271.929 228.322H270.116L268.491 227.51L270.804 222.822L269.741 221.76L272.054 218.322L272.304 215.822L271.429 214.572L268.866 213.76L266.054 210.447L267.554 209.01L267.116 207.947L268.429 203.01L267.179 201.26L266.929 199.322L268.241 197.385L268.304 191.072L267.866 189.26L269.833 187.768H275.534L278.363 184.984H280.042L283.003 187.194L286.362 186.619L287.776 184.763L295.554 184.852L296.482 185.691L298.78 185.735L300.106 186.575L304.614 186.796L306.691 188.078H307.884L308.945 189.094L313.099 189.138L314.867 187.857L315.751 189.138L320.701 189.05L322.734 189.404L324.59 190.995H326.358L328.125 189.846H330.777L332.721 188.785L335.152 188.829L336.92 187.547H338.467L339.483 186.708L343.461 186.664L344.875 185.559L347.482 185.603L349.825 183.349L351.46 183.924L354.332 186.708L356.144 186.752L358.001 185.426L359.503 186.001L361.757 184.189L364.497 184.763L367.105 183.526L369.579 184.321L371.303 185.735L377.667 185.691L383.854 182.642L386.02 180.034L388.362 179.946L391.323 173.98L395.477 172.698L397.112 171.549H399.057L402.769 172.919L407.321 172.345L408.912 173.803L411.962 174.996L414.569 174.952L415.541 176.322L414.834 180.255L416.514 183.437L418.635 186.089L417.53 188.917L417.663 190.641L420.093 193.116L420.138 194.751L418.414 196.165L413.243 193.16L410.105 195.591L409.133 195.016L407.94 196.386L407.189 200.01L408.824 203.104L408.559 207.17L409.133 208.054L404.272 208.142L402.327 207.258L400.692 205.623L398.04 204.606L394.063 205.844L394.107 207.125L395.654 208.142L395.698 209.424L397.554 210.926L395.168 211.545L391.588 214.329L391.544 215.964L388.318 217.246L388.185 220.074L384.429 223.522L384.384 225.201L374.971 225.157L373.248 226.527L370.198 226.041L369.182 225.024L366.839 225.112L365.602 226.173L363.304 226.217L361.271 228.118L361.227 229.664L357.249 228.029H355.26L353.758 229.841L353.802 230.902L355.658 233.023V236.957L359.415 240.492L360.299 240.448V242.79L362.155 244.47L360.078 244.602L356.896 241.243L353.625 243.497L352.741 246.768L351.46 246.37L349.118 243.939L347.836 243.851L346.554 242.525L344.389 244.735L344.477 246.061L342.002 248.182V249.994L339.616 251.717L338.555 249.773L336.832 248.933L334.268 252.027L334.357 254.59L334.887 256.093L336.257 256.711L337.185 258.126L333.694 259.717H331.617L330.733 259.186L328.656 261.794L326.269 261.573L322.336 257.639V256.844L321.231 256.711L318.845 254.104L317.607 253.927L317.74 252.204L316.767 251.099L317.828 250.038L314.293 248.491L312.613 245.884L310.006 245.972L310.182 251.143L309.166 252.159L307.045 251.717L305.409 253.176L303.774 253.087L302.625 251.01L301.609 251.054L300.548 252.204L298.604 252.159V253.485L299.62 256.181L298.206 258.214L298.25 262.236L296.085 264.313L294.449 264.401L293.831 267.804L292.947 269.174L294.891 270.853L293.256 271.826L291.4 271.87L286.98 275.052L282.428 274.919L281.103 275.936L279.467 274.787L276.33 275.14L275.623 271.958L272.706 269.351L274.562 267.716L274.518 266.567L272.043 263.738H269.701L268.065 265.241L266.563 264.931Z" fill="#FFE7C4" stroke="#0C0101"/>
<path id="gyms" d="M161.303 251.01L160.629 252.156L156.917 251.449L153.823 254.189L153.646 255.427L150.995 255.515L148.431 257.548L144.454 257.637L142.598 259.758L141.802 259.051L143.04 257.813L143.128 255.604L145.78 250.035L144.807 249.151L143.393 248.533L143.216 246.942L141.714 247.03L137.825 250.654L135.703 251.803L135.615 253.129L132.168 254.631L130.577 256.753L128.721 256.664L126.865 259.228L125.804 257.46L123.594 256.399L121.65 254.366L119.44 253.836L118.203 255.073L117.319 254.013L114.844 252.333L114.932 250.831L113.695 249.416V248.444H112.28L109.806 249.947L106.712 250.035L105.74 249.24L104.326 250.124L103.618 249.063L102.293 248.621L100.702 250.124L98.5803 250.389L94.1609 253.924L92.4815 254.278L90.8905 253.482L89.9182 254.278L88.2389 253.571L84.173 248.621L83.9962 246.234L85.4905 244.823L86.4905 242.073L86.803 239.698L85.3655 238.01L84.4905 236.01L86.1155 234.823L88.053 234.948L90.9905 233.01L90.928 231.823L92.9905 230.823L92.1155 229.448L93.303 227.698L90.8655 225.26L90.928 223.51L88.303 223.135L87.053 221.51L87.3655 220.323L88.928 218.823V217.823L87.553 216.323V214.198L85.4905 210.698V209.448L84.678 208.573L81.6155 207.948L80.3655 209.323H77.678L76.9905 210.385L76.1155 210.885L72.2405 208.885L68.303 205.073L66.053 204.01L64.8655 204.948L61.9905 204.885L60.7405 203.135L57.803 202.948L54.678 200.885L53.303 200.448L52.4905 198.698L55.4905 196.635V194.26H56.8655L59.428 196.385L59.678 194.948L60.1155 194.135H61.553L61.678 192.573L62.9905 191.01L66.553 190.948L68.678 189.885L71.4905 187.573L69.4905 184.698L71.428 181.323H74.7405L77.053 180.01H84.678V182.573L90.2405 184.448L96.2405 185.573L96.3655 188.01L99.928 197.448L111.428 197.51L112.616 196.448L113.616 192.135L115.428 190.948L117.553 189.073L118.303 190.135L118.366 196.698L127.428 196.635L143.491 192.26L150.428 192.323L147.241 188.823L147.303 182.948L145.991 181.635L146.053 175.823L144.741 174.323L148.741 171.448L145.866 167.948L144.053 167.198L145.241 165.448L140.678 161.323L138.928 160.135L138.991 158.948L140.616 157.76L142.053 158.76H143.553L145.241 157.26L147.616 157.323L150.803 156.135L152.428 151.76L152.303 149.885L153.553 147.26L154.803 146.073L153.803 144.823L151.741 143.698L153.616 142.323L153.678 140.573L154.928 139.26L152.616 136.385L159.991 129.948L161.366 129.51L162.741 128.01H164.241L165.428 127.26L166.741 126.01L171.116 126.76L173.866 126.073L174.303 129.448L177.991 131.885L187.241 131.76L187.491 133.385L194.803 141.635L197.116 141.573L197.178 144.135L201.616 148.448L201.741 151.698L203.053 152.885L203.178 154.448L204.428 156.51L205.741 156.448L207.053 157.948H208.303L210.178 160.073L214.178 159.948L215.428 161.635L216.303 163.573L216.366 165.635L217.803 166.448L217.866 168.51L220.991 171.885L222.178 170.698H224.241L225.678 169.26L227.428 170.51V171.635L230.116 174.573L230.178 175.948L231.428 175.885L233.741 178.01H235.553L238.991 181.76L239.116 183.573L240.616 184.573L242.616 184.51L243.991 185.823L248.053 185.885L249.991 187.823L260.803 187.885L262.491 186.573H263.741L267.866 189.26L268.303 191.073L268.241 197.385L266.928 199.323L267.178 201.26L268.428 203.01L267.116 207.948L267.553 209.01L266.053 210.448L268.866 213.76L271.428 214.573L272.303 215.823L272.053 218.323L269.741 221.76L270.803 222.823L268.491 227.51L270.116 228.323H271.928L272.866 229.198L270.678 231.135L267.178 231.01L265.803 233.385L267.053 234.76L267.116 237.01L269.178 238.635L269.116 239.698L265.428 242.073L265.491 244.448L263.553 245.823L263.866 249.198L265.303 250.135L265.241 251.698L266.178 253.01L267.303 253.135L267.366 254.885L266.366 256.198L266.303 257.635L263.928 259.948L264.053 262.823L265.491 264.198L263.866 266.135H260.866L255.991 269.698L257.678 271.885V273.573L254.991 276.323L255.053 278.135H251.241L250.616 277.26L248.616 279.073L249.928 287.76L247.053 289.073L248.053 287.135L246.553 285.573L246.678 281.823L245.428 279.323H243.616L240.991 278.198L242.178 277.01L240.241 273.948L241.428 272.635L241.366 270.635L245.491 269.76L247.803 266.26L247.741 264.885L250.928 264.01L249.866 262.073L251.241 259.385L250.178 256.948L246.866 252.76L247.616 252.01L246.428 250.76L246.928 249.073L243.491 245.198L241.616 247.198L241.741 249.698L239.491 249.448L240.428 247.698L238.866 245.885L236.241 247.073L234.366 245.698L232.366 245.635V248.823L230.928 248.948L229.553 249.885L226.678 246.635L224.303 248.135L221.678 245.448L218.803 246.698L219.928 248.51L217.678 251.385L213.991 249.01L214.053 247.698L211.741 245.885L209.303 249.385L209.366 251.198L208.366 253.01L206.741 252.948L205.553 255.51L203.866 254.698H201.741L200.116 253.26L200.053 251.073L199.428 248.823L198.053 247.823L197.116 245.76V243.573L195.241 242.26H193.053L191.803 243.385L192.116 245.573L191.303 246.323L191.241 247.76L188.053 251.01L182.428 251.135L182.303 252.135L179.178 252.323L178.178 253.385L173.928 253.323L172.491 252.198L168.741 251.448L167.178 252.323L165.178 251.76L163.678 250.26L161.303 251.01Z" fill="#FFE7C4" stroke="#0C0101"/>
<path id="vas" d="M144.012 332.416L144.186 336.133L144.274 339.006L143.479 340.331L141.048 338.829L139.59 339.757L139.546 337.768L138.573 336.575L135.745 335.735H134.728L133.314 337.856L134.198 339.58L134.021 343.337L135.082 344.397L135.038 346.209L131.016 349.701L130.662 352.396L128.32 353.457H121.691L120.233 350.982L118.156 350.938L116.962 350.142L114.974 351.38L112.896 351.336L111.968 350.717L110.687 351.512L108.123 349.17L105.074 351.645L105.428 354.96L104.897 355.534L103.925 354.65L101.097 355.667L101.008 359.467L99.5056 360.528L94.1581 359.025L87.308 359.158L86.0705 358.186H83.5073L80.6789 361.279L79.1321 360.175L77.3201 360.219L75.1546 363.533L74.2265 365.787L71.4423 367.776L70.4258 370.825L68.879 372.151L67.3322 372.107L66.8461 377.543L65.5203 379.001L63.7525 377.454H61.0566L59.8634 378.559L58.405 378.515L57.7421 379.311L58.8911 380.99V383.2L57.4327 385.321L57.2117 387L55.002 388.194L53.411 388.149L52.4388 389.387L51.113 389.475L50.0523 390.536L48.8149 390.403L47.8868 391.552L46.3842 390.05H45.1025L44.2187 388.768L42.3183 388.238L37.2802 391.022L38.4292 392.348L39.976 391.685L42.0973 392.127L42.0531 394.16L40.4622 396.104L41.6112 397.651L40.5506 399.11L39.4899 399.198L38.0315 401.584L37.8989 403.131L36.7089 403.127L36.0018 404.364L34.4992 402.95L34.4108 400.563L33.5269 398.354L31.7591 397.028L30.6985 395.525L30.6101 393.581L31.4056 392.343L31.3172 390.399L29.6378 389.868V386.51L30.8753 385.184H33.8805L33.7921 380.941L35.2947 379.439L34.7644 377.229L34.0572 375.815H32.643L28.8423 372.368V371.395L26.8094 370.069L22.39 370.158L21.1525 369.097H18.2357L17.0867 370.158H11.695L9.13173 372.898L7.62913 372.191L5.86136 372.898L3.03293 372.279L1.44194 370.6L1 369.097L4.8007 367.86L4.71231 365.827L8.42462 362.733L10.5459 362.114L11.5182 360.7V358.756L13.286 356.723L13.5511 354.955L14.7002 353.894L16.2912 355.397L17.9706 354.867L20.799 353.276L20.7106 351.773L22.4784 350.094L24.7765 350.005L25.2184 346.028L27.0746 343.995V340.724L28.4004 339.222L30.3449 342.669L31.4056 341.874H32.7314L35.825 343.288L36.1786 341.608L37.6812 340.459L39.0954 341.078L40.3328 342.934L42.0122 343.199L43.5148 341.962L44.6638 341.52L45.9013 341.874L46.9619 343.023L47.0503 343.995L50.3207 344.083L51.8233 342.492L56.1543 344.79L57.215 343.376H58.8944L60.1318 342.581L57.5685 340.194L56.1543 339.487L55.7124 338.161L54.033 336.393L52.3536 336.305L51.4697 337.012L50.6742 336.04L51.293 334.714L52.7072 334.626L53.4143 333.3H58.0989L58.806 332.151H63.0486L61.7228 331.002V329.853L59.8666 328.439L57.6569 328.35L55.624 327.024L55.5356 324.107L54.7401 323.047V321.367L55.7124 320.749L57.215 320.837L58.1873 319.865L59.6899 319.335V317.39L62.6951 315.711L64.1093 315.622V313.943L62.8718 311.998V311.203L61.3692 310.407L59.8666 311.291H56.8614L55.7124 312.705L53.9446 312.794L52.6188 310.849L53.3259 309.789L54.6517 309.17V305.192L53.4143 303.867V302.541L48.9949 302.983V300.419L48.0226 299.005L48.7297 297.856L51.293 297.503L51.1162 293.879L52.5304 292.73L52.3536 290.255L51.2046 289.017L54.1214 288.045L55.5356 289.017L57.3918 286.896L57.3034 283.714L57.9221 282.565L59.2479 282.477L58.0989 279.913L58.1873 278.057L57.4802 277.438L57.3034 274.964L56.3311 274.345L56.1543 272.489L55.3588 271.693L55.8008 270.191L55.0053 269.66L53.0607 269.483V267.627L51.8233 266.655L53.3259 265.506L54.475 265.594L54.8285 264.534V262.059L54.1214 261.352L55.0053 258.877L53.5027 256.932L53.4143 254.546L55.3588 253.574L56.9498 254.457L59.6899 254.546L59.7783 257.197L61.2809 258.7L62.7835 257.728V255.872L64.2861 254.634L66.2306 255.783L66.8493 254.281L68.6171 255.607H72.5946L74.0088 253.839V252.955L76.4837 252.159L77.1908 250.922L79.3121 251.01L80.196 249.596L80.1076 248.093L81.8753 247.828L83.9967 246.237L84.1734 248.624L88.2393 253.574L89.9187 254.281L90.891 253.485L92.4819 254.281L94.1613 253.927L98.5807 250.392L100.702 250.126L102.293 248.624L103.619 249.066L104.326 250.126L105.74 249.243L106.712 250.038L109.806 249.95L112.281 248.447H113.695V249.419L114.933 250.834L114.844 252.336L117.319 254.016L118.203 255.076L119.44 253.839L121.65 254.369L123.595 256.402L125.804 257.463L126.865 259.23L128.721 256.667L130.577 256.756L132.168 254.634L135.615 253.132L135.704 251.806L137.825 250.657L141.714 247.033L143.217 246.944L143.394 248.535L144.808 249.154L145.78 250.038L143.128 255.607L143.04 257.816L141.803 259.054L142.598 259.761L144.454 257.639L148.432 257.551L150.995 255.518L153.647 255.43L153.823 254.192L156.917 251.452L160.629 252.159L161.513 255.872L163.546 259.672L164.784 260.556L162.662 262.766L167.7 268.953L169.468 269.572L172.12 271.605L173.976 271.693L177.158 274.875L175.213 277.173L170.44 276.731L167.966 278.941V280.178L166.463 281.504V284.421L165.314 285.659H164.43L163.546 287.073L163.635 289.548L164.695 290.166L165.667 295.558V299.005L164.784 300.154L165.844 300.861L164.518 303.159V306.43L165.049 307.667L162.397 310.849V312.971L163.635 315.003L163.9 317.92L165.402 321.456L164.342 323.577L165.933 326.406L165.844 327.82L161.867 331.532L160.806 331.974L159.657 330.56L158.066 330.206L154.66 327.882L151.967 330.206H151.172L150.111 331.09H148.343L146.874 332.239L144.012 332.416Z" fill="#FFE7C4" stroke="#0C0101"/>
<path id="zala" d="M110.469 488.421L110.914 492.885L115.351 494.697L116.976 493.51L118.289 493.572L119.414 495.197V499.447L121.289 499.197L123.476 496.635L126.351 495.26L128.789 495.072L129.414 496.135L132.289 496.01L134.226 494.447V492.572L134.789 490.572L137.039 488.385L137.101 484.51L135.226 482.26L134.851 478.385L133.101 476.385L134.039 475.385L134.789 472.885L136.414 471.885L138.851 474.697L140.226 475.197L141.476 472.635L143.351 471.51L145.476 472.447L146.914 474.447L150.164 474.26L150.539 470.697L157.914 468.822L157.851 464.51L159.101 463.26V462.01L157.789 461.26L157.726 457.697L159.851 457.197L160.226 455.197L162.039 454.822L163.539 451.197L163.414 439.135L162.476 431.197L163.476 420.76L165.101 417.135L169.914 414.26L169.789 410.385L171.851 403.572L175.476 403.072L178.914 404.76L185.726 404.572L188.289 402.385L190.539 402.447L191.539 401.072L193.976 401.135L193.863 399.503L184.759 391.017L184.804 387.968L183.301 385.891L182.24 385.758L182.019 384.256L180.252 383.593L181.003 381.03L180.782 378.687L181.843 377.406L181.71 375.947L179.854 373.605L180.826 371.395L179.279 369.141L177.644 369.009L177.335 366.622L176.142 365.164L173.49 363.617L171.943 364.81L168.584 364.192L166.772 362.91L166.065 361.142L166.772 359.33L168.275 357.651L168.231 355.574L169.336 354.69V353.452L167.17 350.491L166.817 348.414L163.635 345.365L162.132 345.453L160.453 347.177L159.083 347.088L157.889 345.895H153.779L153.735 343.023L151.658 342.934L149.448 340.017L147.813 339.089L146.31 336.703L144.189 336.128L144.278 339.001L143.482 340.327L141.051 338.824L139.593 339.752L139.549 337.763L138.576 336.57L135.748 335.731H134.732L133.317 337.852L134.201 339.575L134.024 343.332L135.085 344.393L135.041 346.205L131.019 349.696L130.666 352.392L128.323 353.452H121.694L120.236 350.978L118.159 350.933L116.966 350.138L114.977 351.375L112.9 351.331L111.972 350.712L110.69 351.508L108.127 349.166L105.077 351.64L105.431 354.955L104.9 355.53L103.928 354.646L101.1 355.662L101.011 359.463L99.5088 360.523L94.1613 359.021L87.3112 359.153L86.0738 358.181H83.5105L80.6821 361.275L79.1353 360.17L77.3233 360.214L75.1578 363.529L74.2297 365.783L71.4455 367.771L70.429 370.821L68.8822 372.147L67.3355 372.102L66.8493 377.538L65.5235 378.997L63.7557 377.45H61.0599L59.8666 378.555L58.4082 378.51L57.7453 379.306L58.8944 380.985V383.195L57.436 385.316L57.215 386.996L55.0053 388.189L53.4143 388.145L52.442 389.382L51.1162 389.471L50.0555 390.531L48.8181 390.399L47.89 391.548L46.3874 390.045H45.1058L44.2219 388.764L42.3216 388.233L37.2834 391.017L38.4325 392.343L39.9793 391.68L42.1006 392.122L42.0564 394.155L40.4654 396.1L41.6144 397.647L40.5538 399.105L39.4931 399.193L38.0347 401.58L37.9021 403.127L38.9186 404.629L37.416 406.795L39.0954 407.9L42.8077 407.811L45.3709 409.446L44.708 411.833L45.5919 414.219L44.0451 416.385L41.3935 415.501L39.007 419.037L39.5815 420.23L41.2167 421.909L42.6309 422.395L44.6638 426.284H45.9455L46.7852 427.566L48.4203 427.61L50.1881 430.571L53.6353 434.151L53.5469 436.626L54.6959 437.907L57.5685 437.819L58.8944 440.117L58.1873 442.813L60.3528 444.979L59.2921 447.321L60.0876 448.912L59.2921 450.547L62.2089 452.801L63.4022 452.934L65.6561 455.276H66.9819L68.0426 456.734L70.9152 456.823L72.1084 458.502L75.202 460.358L77.0582 459.297L78.5166 460.314L79.2679 462.612L80.7705 463.142L81.9637 464.866L82.4057 467.827L83.9083 469.197L83.9967 470.965L85.1899 471.937L85.1457 472.909L86.8693 474.721L87.8857 473.484L89.3884 473.616L90.0513 474.544V476.489L93.189 476.533L93.2332 477.859L95.6197 478.92L97.4317 477.329L98.8459 477.373L100.039 478.345L101.542 480.864H104.503L107.641 483.693V484.444L109.276 485.151V486.919L110.469 488.421Z" fill="#FFE7C4" stroke="#0C0101"/>
<path id="somogy" d="M213.553 577.823L208.928 577.698L207.491 578.573L205.366 577.698L204.178 576.198L197.678 576.323L194.553 574.01H192.241L191.428 575.198L192.616 577.885L191.991 578.823H189.428V577.698L188.428 577.01L185.928 578.635L184.928 578.01L184.866 575.823L183.866 574.76L182.741 574.823L180.491 576.385H179.303L178.803 575.323L178.991 573.323L181.241 572.01L181.303 570.51L179.803 568.448L177.928 568.323L176.741 569.698L174.428 569.573L174.491 566.885L172.678 565.51L172.803 563.26L172.116 562.448L169.428 562.51L166.366 560.323L167.178 559.073L170.053 558.01L170.491 556.948L166.928 555.823L166.866 552.948L167.991 550.948L165.616 550.448L163.741 549.26L162.678 545.823L161.366 545.01L159.553 546.26L158.303 546.323L158.241 545.26L160.866 543.76V542.385L159.616 541.135L159.491 539.073L157.741 538.323L155.428 539.448L154.366 538.635L154.866 536.948L153.741 535.073L155.366 533.76V531.823L153.741 529.573L152.241 529.26L151.178 526.135L146.678 525.823L143.803 522.948L138.053 519.948L137.991 518.26L135.178 518.323L132.428 516.76L129.366 513.948L127.741 513.885L126.928 512.448L125.803 513.323H124.303L124.241 509.885L121.553 509.76L118.053 505.698H116.428L114.991 504.635L115.053 503.385L113.241 501.76L111.616 500.885L111.553 496.635L110.241 494.573L110.928 492.885L115.366 494.698L116.991 493.51L118.303 493.573L119.428 495.198V499.448L121.303 499.198L123.491 496.635L126.366 495.26L128.803 495.073L129.428 496.135L132.303 496.01L134.241 494.448V492.573L134.803 490.573L137.053 488.385L137.116 484.51L135.241 482.26L134.866 478.385L133.116 476.385L134.053 475.385L134.803 472.885L136.428 471.885L138.866 474.698L140.241 475.198L141.491 472.635L143.366 471.51L145.491 472.448L146.928 474.448L150.178 474.26L150.553 470.698L157.928 468.823L157.866 464.51L159.116 463.26V462.01L157.803 461.26L157.741 457.698L159.866 457.198L160.241 455.198L162.053 454.823L163.553 451.198L163.428 439.135L162.491 431.198L163.491 420.76L165.116 417.135L169.928 414.26L169.803 410.385L171.866 403.573L175.491 403.073L178.928 404.76L185.741 404.573L188.303 402.385L190.553 402.448L191.553 401.073L193.991 401.135L198.553 401.198L199.366 400.385L205.678 400.323L206.616 399.073L208.116 399.135L211.428 395.885L214.866 395.135L230.241 388.198L229.616 386.323L231.116 387.635L236.303 384.885L240.116 383.51L240.428 382.135H242.553L244.116 381.198L249.366 380.073L258.741 374.135L260.991 375.698L262.866 375.76L263.678 374.198L265.428 374.26L268.678 368.823L267.178 366.885L267.053 365.198L269.116 365.135L271.803 363.635L274.991 362.823L276.991 361.198L284.991 358.198L286.616 358.26L288.803 356.01H289.741L291.553 354.885L302.366 358.51L304.053 357.448L306.616 360.135L308.928 363.135L309.491 365.698L312.616 373.26L309.803 375.448L311.116 377.51L310.303 378.823L310.178 383.073L311.303 384.51L310.116 385.823L310.428 393.698L311.928 395.948L311.178 396.823L309.241 396.948L307.803 398.135L306.072 398.177L305.189 399.768L306.117 404.629L303.332 404.762L302.802 404.055L300.637 405.778L297.366 407.237L298.294 408.607L298.25 410.507L299.222 411.877L299.311 418.462L297.941 419.788L296.217 420.716L295.466 422.174L296.261 423.854L293.344 425.887L293.477 428.936L291.709 429.599L290.825 431.941L293.053 436.573L291.303 440.26V442.51L288.428 444.76L286.116 444.135L285.303 445.448L285.491 447.698L284.178 449.51L284.116 452.323L285.741 454.948L285.178 458.635L286.428 460.073L286.366 462.26L287.741 464.323V466.01L289.366 469.323L289.428 472.76L287.616 473.635L286.741 474.635H284.866L283.928 476.323L280.928 478.573L281.303 481.198L286.741 481.01L289.053 483.885L289.116 485.698L290.866 485.948L291.928 489.073V494.135L289.991 497.01L289.803 498.385L290.741 498.885L291.178 500.385L290.535 501.748L288.524 501.726L287.066 500.842L285.696 501.637L283.84 500.576L280.083 500.532L278.227 498.853H272.924L269.344 502.654L269.256 507.161L268.195 509.018L268.151 514.498L266.56 516.089L265.278 515.382L262.936 517.282L260.815 515.823L258.782 517.547L256.97 517.635L254.451 520.022L251.18 518.829L250.385 517.282L247.247 516.752L243.977 520.596L241.369 520.552L240.043 519.05V516.531L238.231 514.056L235.801 516.31L236.906 518.166L235.049 520.508L234.961 523.823L232.53 528.684L231.381 529.877L231.337 531.866L230.276 533.811L230.674 541.014L228.509 542.517L229.746 544.285V547.334L228.332 548.483L228.111 550.472L226.608 550.56L226.52 552.372H225.327L223.073 554.449L222.984 557.852L223.868 558.78L223.912 560.239L226.343 562.095L226.432 565.719L224.796 567.221L222.454 567.089L221.88 567.796L224.045 573.762L223.824 578.049L224.973 578.093L226.343 576.988L226.741 575.265L228.111 576.502L230.453 576.591L230.321 579.375L231.116 580.701H232.751L235.315 582.292L236.022 585.385L237.613 586.49L237.038 587.506L236.994 590.335L237.701 591.219L236.508 593.649L231.956 594.091L231.204 592.368H229.437L228.553 593.208L228.288 594.843L226.962 596.699L225.548 596.92L225.053 594.823L223.991 593.573L224.053 591.698L222.803 590.26V587.885L221.116 586.26L220.866 584.198L219.241 583.51L217.428 581.698L216.678 581.635L216.116 579.948L214.991 579.823L213.553 577.823Z" fill="#FFE7C4" stroke="#0C0101"/>
<path id="baranya" d="M400.736 586.532L401.932 585.556L401.844 583.877L399.634 582.109V580.783L400.783 579.634L402.728 579.723L403.965 578.574L407.059 577.867L404.761 577.159L402.905 574.419L404.672 571.414L404.761 567.525L407.943 562.752L408.12 561.78L404.938 557.007H403.789L401.844 559.393L400.076 560.012L398.132 559.305L393.801 559.924L392.298 559.128L390.884 559.305L388.939 557.714L388.497 552.941L389.735 551.527L391.326 551.085L392.74 549.317L393.005 547.726L394.861 546.135V543.925L395.657 542.334L394.265 540.943L391.405 541.709L388.274 539.598L386.064 539.51L385.047 538.272L381.91 538.228L380.495 536.637L380.584 535.356L373.203 527.047H372.054L370.287 524.97L368.696 525.986L367.591 525.942L367.458 524.616L366.751 523.202L365.425 522.407L364.232 522.318L364.144 519.225L365.116 518.473L364.718 517.236L363.215 518.65L361.713 518.518L361.05 517.192L358.266 516.043L358.221 514.673L360.299 512.419L359.459 507.248L357.912 507.204L356.94 506.276L356.852 505.038L355.216 502.475L353.89 502.961L351.416 502.387L351.548 503.978L350.488 505.922L351.283 507.16L347.924 510.695L346.687 511.181L346.024 512.596L344.654 512.905L343.063 514.363H342.091L340.897 515.999L338.776 516.883L337.273 518.253L336.169 519.622H334.71L332.898 517.943L332.854 516.441L335.948 515.159L336.832 514.408L338.113 514.142L339.572 511.668L340.632 506.585L341.649 505.701L340.428 503.635L338.491 503.698L336.678 502.01L335.178 501.635L335.116 494.448L336.991 492.948L337.053 491.01L335.116 488.76L333.053 487.635L331.866 487.698L329.866 484.323L329.366 482.635L330.616 479.385L327.366 475.823L324.991 475.885L323.991 477.323L320.741 476.51L318.866 478.198L317.366 478.135L316.178 477.323L313.803 478.26L311.741 477.385L307.366 479.573L307.241 485.635L309.178 488.573L309.116 491.385L308.053 493.198L305.553 493.823L302.616 496.573L300.116 496.635L298.928 495.51L297.491 496.385L295.428 496.448V499.26L296.928 501.573L298.616 501.698V502.885L296.616 504.26L293.866 499.698L291.178 500.385L290.538 501.746L288.527 501.724L287.069 500.84L285.699 501.635L283.843 500.575L280.086 500.531L278.23 498.851H272.927L269.347 502.652L269.259 507.16L268.198 509.016L268.154 514.496L266.563 516.087L265.281 515.38L262.939 517.28L260.818 515.822L258.785 517.545L256.973 517.634L254.454 520.02L251.183 518.827L250.388 517.28L247.25 516.75L243.98 520.595L241.372 520.551L240.046 519.048V516.529L238.234 514.054L235.804 516.308L236.909 518.164L235.052 520.506L234.964 523.821L232.533 528.682L231.384 529.876L231.34 531.864L230.279 533.809L230.677 541.013L228.512 542.515L229.749 544.283V547.332L228.335 548.481L228.114 550.47L226.611 550.558L226.523 552.37H225.33L223.076 554.448L222.987 557.85L223.871 558.779L223.915 560.237L226.346 562.093L226.434 565.717L224.799 567.22L222.457 567.087L221.882 567.794L224.048 573.76L223.827 578.047L224.976 578.091L226.346 576.987L226.744 575.263L228.114 576.5L230.456 576.589L230.324 579.373L231.119 580.699H232.754L235.318 582.29L236.025 585.383L237.616 586.488L237.041 587.505L236.997 590.333L237.704 591.217L236.511 593.648L231.959 594.09L231.207 592.366H229.44L228.556 593.206L228.291 594.841L226.965 596.697L225.551 596.918L227.672 599.923L229.572 599.835L230.545 598.686L232.003 599.128L233.24 600.409L234.389 600.321L235.715 601.47L238.411 601.426L241.549 605.227L244.775 604.343L247.824 606.685L249.504 606.597L250.83 605.403L252.332 606.42L252.244 609.513L254.277 611.37L255.647 611.767V614.065L257.061 614.507L259.094 611.988L261.613 610.132L264.22 609.779L265.9 611.414L269.656 609.602L272.75 611.281L276.551 608.762L281.456 613.226L282.473 613.182L283.224 614.154L286.362 614.198L289.941 616.364L291.709 615.656L295.422 612.74L295.51 611.06L300.018 611.149L302.714 613.844H303.686L304.437 612.298L306.338 611.193L311.287 612.784L315.795 617.071L317.607 617.247L319.021 618.883L322.468 617.424L329.053 619.59L330.998 616.585L332.5 616.496L333.34 614.728L334.091 616.408L336.036 616.805L337.981 618.75L337.936 620.474L339.881 622.286L342.312 622.197L343.814 622.904L345.449 621.446L345.228 617.38L346.51 615.877L349.118 616.717L350.399 616.143L352.344 610L354.819 612.342L356.896 612.253L359.326 609.779L364.453 608.674L364.541 605.757L366.353 605.89L368.651 603.415L368.607 601.426L371.524 600.144L370.949 597.979L372.496 596.123L372.585 594.664L375.678 593.957L376.606 592.631L375.457 591.173L375.501 589.935L377.976 588.786L378.639 587.151L377.8 585.693L379.302 583.925L383.987 584.058L385.931 586.091L387.478 586.046L388.45 587.372L391.058 587.328L393.312 590.775L397.908 592.764L399.808 591.659L400.736 586.532Z" fill="#FFE7C4" stroke="#0C0101"/>
<path id="bk" d="M532.037 526.694L533.313 524.968L533.048 519.886L529.601 515.864V514.45L527.833 512.771L527.789 511.71L524.43 508.44L526.728 505.125L527.524 505.081L530.441 502.076L531.987 498.982L528.85 493.016L527.17 491.16L527.966 490.055L537.423 486.74L540.208 489.303L544.052 486.652H546.174L547.676 484.619L550.991 482.807L551.698 481.481L555.454 482.63L557.974 484.486L560.272 481.658L560.979 478.387L563.188 475.515L563.675 473.703L561.332 469.195L564.426 465.439L564.47 463.494L561.597 458.854L559.83 458.809L556.692 454.744L554.968 454.39L550.549 455.893L546.174 450.457L562.879 440.248L566.547 442.546L570.481 446.612L577.949 436.757L576.27 434.945L577.463 432.912L575.121 427.432L575.43 425.178L577.198 421.244L579.408 417.62L579.319 413.422L572.911 408.207L577.552 403.434L579.231 399.943L585.153 393.137L587.186 392.96L587.334 389.166L586.616 388.01L584.709 387.854L583.522 389.135L583.491 391.635L581.741 393.26L577.803 388.448L577.991 386.573L581.428 384.51L585.616 384.448L588.116 383.01L594.428 383.198L594.741 381.385L592.741 379.198L590.928 378.135L590.991 375.448L593.116 374.26L594.428 372.948L596.116 369.385L597.991 367.948L599.741 368.01L601.241 366.635L601.303 363.698L600.303 362.01L598.241 361.823L596.616 360.26L593.928 362.135L592.178 359.76L592.678 358.76L597.116 356.635L596.991 352.573L597.741 351.135L599.241 350.948L597.053 350.51L596.366 349.323L594.428 348.76L591.491 347.01L588.866 344.76L587.366 344.198L584.928 345.885L582.928 345.948L580.928 347.885L577.803 348.135L573.866 352.948L575.116 355.51L574.303 356.385H572.866L571.366 355.01L566.866 354.948L565.491 352.635L563.741 352.573L559.116 349.76L554.741 360.198H553.428L552.678 361.073L551.741 361.01L548.491 358.135L544.866 360.198L537.741 353.635L529.866 349.51L524.303 342.698L522.491 337.635L522.241 335.385L520.991 332.885V330.448L516.053 322.885L512.991 325.76L504.053 323.573L501.991 328.323L501.866 331.76L500.241 334.823L499.678 337.885L494.928 336.823L493.116 335.448L485.241 341.448L480.678 343.135H478.678L476.553 345.51L472.866 341.448L474.303 337.135L476.616 333.01L478.241 332.823V331.385L479.241 330.76L479.928 329.135L476.053 323.823L473.366 323.073L468.741 321.01L468.116 319.948L464.553 321.26L462.991 323.323L462.116 327.26L459.928 329.385L458.866 328.698L453.616 328.76L448.116 334.073L445.241 335.01L443.491 336.698L443.428 339.135L440.303 340.573L439.366 341.573L435.741 339.698H433.366L432.116 337.698L427.803 337.573L425.241 335.76H423.178L423.116 337.448L425.366 340.26L424.741 341.573L423.428 341.823L423.803 343.823L425.116 345.948L421.803 350.385L421.741 354.823L422.678 356.448L423.991 361.885L423.928 367.635L422.553 369.948L421.991 372.01L420.428 373.385L420.366 374.573L418.491 377.073L418.553 379.448L417.678 380.573L417.178 387.885L421.553 392.51L421.803 393.573L424.553 396.885L424.991 398.885L426.178 400.948L426.241 404.198L427.241 405.698L427.366 408.01L430.616 412.448L430.491 415.635L428.616 417.073L426.303 421.823L423.178 425.01L420.741 425.073L419.053 427.323H417.053L416.428 428.26L415.053 428.323L412.991 426.948L411.475 427.699L409.001 432.737L407.41 434.328L408.824 435.919L408.735 437.686L409.708 439.277L411.652 439.896L413.332 442.636L413.243 445.995L414.304 447.674L414.392 448.912L412.89 451.74L414.481 454.745L415.011 457.662L416.514 458.988L417.309 462.7L417.132 468.18L415.718 472.246L413.42 474.103L411.741 477.373V481.704L413.42 484.621L413.243 491.869L414.304 493.106L414.127 494.785L416.867 496.376L417.574 499.647L416.425 502.74L416.337 506.187L414.923 508.044L415.011 509.723L413.597 510.695L409.354 507.071L408.382 508.574L409.708 511.668L409.001 515.291L407.498 515.026L404.493 517.148L403.167 520.506L403.344 521.655L408.912 519.799V523.688L406.879 524.572L405.465 526.605V528.285L404.493 529.964L404.581 535.179L402.813 536.416L402.548 538.449L400.515 539.952L400.339 542.073L398.129 542.78L395.654 542.338L394.858 543.929V546.139L393.002 547.73L392.737 549.321L391.323 551.089L389.732 551.531L388.495 552.945L388.936 557.718L390.881 559.309L392.295 559.132L393.798 559.928L398.129 559.309L400.073 560.016L401.841 559.397L403.786 557.011H404.935L408.117 561.784L407.94 562.756L404.758 567.529L404.67 571.418L402.902 574.423L404.758 577.163L407.056 577.87L403.962 578.578L402.725 579.727L400.78 579.638L399.631 580.787V582.113L401.841 583.881L401.93 585.56L406.614 586.002L408.824 583.969L410.857 584.058L411.652 582.025L414.481 579.992L417.928 580.08L421.375 582.113L425.529 581.229L428.269 582.997L429.86 582.29L428.092 577.605L432.247 573.805L434.456 572.832L436.843 572.921L438.787 574.335L440.997 573.539L438.876 564.966L444.356 557.276L446.212 557.718H448.51L450.101 558.602L450.985 566.557L459.205 567.706L463.978 565.673L465.746 567.352L471.845 566.468L473.524 568.236L474.408 567.352L471.845 562.844L483.866 555.155L487.048 557.895L491.997 555.862V554.713L499.599 547.907L499.245 545.167L500.836 544.725L501.366 543.664H502.781L503.93 542.25H505.609L508.172 539.687L505.255 535.886L507.2 533.588L508.084 534.118L511.001 531.378L512.415 531.025L513.387 530.052V527.754L515.597 526.605L520.105 528.992H524.082L528.59 525.014L530.623 526.87L532.037 526.694Z" fill="#FFE7C4" stroke="#0C0101"/>
<path id="csongrad" d="M639.959 391.636L641.742 389.697L644.305 389.447L645.68 388.635L647.617 390.572L650.18 391.697L652.805 397.072L654.305 397.01L657.555 395.947L662.805 395.885L665.555 398.447L667.18 399.385L665.305 404.135L664.867 408.697L665.367 413.447L666.805 416.26L664.242 416.76L662.867 426.072L665.305 428.26V440.635L666.367 443.072L670.305 447.26L670.43 450.322L669.805 452.572L668.305 454.197L667.867 457.885L669.242 459.885L668.242 461.197L669.18 462.26L669.305 464.572L666.367 464.51L666.305 474.385H664.617L662.492 475.947L661.117 478.26L661.805 479.885L665.117 483.072L664.117 484.51L666.18 486.197L667.492 485.01L672.367 487.697L673.555 486.947L680.742 487.635L683.305 480.51H689.555L689.68 482.072L691.305 483.572L693.117 489.447L691.992 501.76L693.617 501.822L694.805 503.635L694.495 504.862L691.888 509.988L693.965 518.694H688.927L688.617 519.843L689.413 522.053L688.219 523.821L687.954 525.898L686.628 528.594L684.772 529.124L682.739 532.483L680.353 531.201L678.408 531.246L677.171 532.925L675.889 536.46L673.326 534.781L673.238 533.367L671.647 533.278L670.365 531.246L668.553 531.113L664.443 527.18L660.156 524.307L657.195 524.351L656.311 523.556L655.383 522.981L653.306 524.793L654.278 526.428L653.394 528.285L648.975 533.19L645.086 533.278L640.534 530.715L638.589 530.671L636.91 529.831L634.877 530.98L632.535 528.329L630.811 529.036L627.408 532.129L626.127 531.025L624.757 532.129L623.652 531.555L620.558 535.311V536.902L619.232 537.919L618.393 539.554L616.978 538.228V537.212L614.504 537.256L610.393 535.311L610.349 533.455L606.902 530.583L604.958 532.395L603.234 532.262L602.173 533.632H599.743L597.356 531.201L594.749 529.434V528.24L593.821 527.401L589.666 531.467L589.003 533.986L587.412 532.969L585.556 534.251L583.877 532.837L582.551 528.285L581.225 526.517L570.575 526.119L564.873 531.069H562.885L562.089 532.306L560.056 532.174L559.084 533.102L557.802 533.323L555.814 535.753L552.234 537.344L549.273 536.505L549.229 535.002L546.842 535.135L545.958 534.56H543.97L542.246 532.837L542.158 531.511L539.55 529.036L538.003 529.566L536.722 527.798L535.484 527.754V526.87L533.319 524.97L533.054 519.888L529.607 515.866V514.452L527.839 512.772L527.795 511.712L524.436 508.441L526.734 505.127L527.529 505.083L530.446 502.077L531.993 498.984L528.855 493.018L527.176 491.161L527.971 490.057L537.429 486.742L540.213 489.305L544.058 486.654H546.179L547.682 484.621L550.996 482.809L551.704 481.483L555.46 482.632L557.979 484.488L560.277 481.66L560.984 478.389L563.194 475.517L563.68 473.705L561.338 469.197L564.432 465.44L564.476 463.496L561.603 458.855L559.835 458.811L556.698 454.745L554.974 454.392L550.555 455.895L546.179 450.459L562.885 440.25L566.553 442.548L570.486 446.614L577.955 436.758L576.276 434.946L577.469 432.914L575.127 427.433L575.436 425.18L577.204 421.246L579.413 417.622L579.325 413.424L572.917 408.209L577.557 403.436L579.237 399.945L585.159 393.139L587.192 392.962L588.208 394.244H590.373L591.478 395.569L591.567 398.751L593.202 398.265L593.069 396.321L595.102 394.951L597.135 396.1L597.798 397.691L600.052 399.635L602.659 400.652H605.179L606.549 396.763L608.405 394.686L609.819 395.304L610.747 394.641L610.04 393.404L612.868 391.283L616.183 392.299L617.509 393.537L619.497 394.376L620.028 396.365L621.044 398L625.154 399.193H628.204L629.397 397.735L629.353 396.1L630.811 394.244L637.043 393.934L638.501 391.769L639.959 391.636Z" fill="#FFE7C4" stroke="#0C0101"/>
<path id="bekes" d="M716.803 305.01L716.053 306.073L714.428 305.073L711.972 306.557L710.991 308.323H709.303L702.366 315.635L704.803 318.51L704.866 320.198L703.303 320.26L701.803 321.948L703.241 326.885L701.491 329.635L703.241 331.76L701.553 332.51L700.741 334.385L696.491 337.26V338.448L689.991 338.573L690.053 335.51L687.491 335.573L684.053 338.448H683.366L681.741 340.323L681.803 343.198L683.428 346.76L681.991 350.385L682.553 351.51L683.991 352.448L684.428 353.823L683.928 355.385L685.241 356.448V360.198L682.616 363.073L682.678 364.323L677.428 365.573L672.678 368.823L666.491 364.385L663.991 365.448H661.241L660.116 364.51L658.366 365.698V368.198L651.116 371.385L645.616 369.073L643.241 373.823L638.428 378.448L639.616 380.635L639.428 383.01L640.678 384.76L640.553 387.26L641.428 388.198L641.741 389.698L644.303 389.448L645.678 388.635L647.616 390.573L650.178 391.698L652.803 397.073L654.303 397.01L657.553 395.948L662.803 395.885L665.553 398.448L667.178 399.385L665.303 404.135L664.866 408.698L665.366 413.448L666.803 416.26L664.241 416.76L662.866 426.073L665.303 428.26V440.635L666.366 443.073L670.303 447.26L670.428 450.323L669.803 452.573L668.303 454.198L667.866 457.885L669.241 459.885L668.241 461.198L669.178 462.26L669.303 464.573L666.366 464.51L666.303 474.385H664.616L662.491 475.948L661.116 478.26L661.803 479.885L665.116 483.073L664.116 484.51L666.178 486.198L667.491 485.01L672.366 487.698L673.553 486.948L680.741 487.635L683.303 480.51H689.553L689.678 482.073L691.303 483.573L693.116 489.448L691.991 501.76L693.616 501.823L694.803 503.635L697.366 504.573L699.053 503.135L709.803 500.698L711.678 503.698L717.241 506.198L717.991 503.51L719.866 502.323L721.053 502.385L721.428 504.135L722.991 506.323L729.303 506.698L732.928 504.51L734.803 507.885L737.178 509.135L739.366 509.635L742.553 506.135L744.303 505.448L745.553 500.76L745.241 496.885L748.553 496.635L751.116 495.948L751.928 497.635L754.803 497.385L756.303 495.76L754.803 493.135L755.366 492.073L755.428 489.885L758.428 486.573L759.053 483.073L757.928 481.448L758.803 477.698L760.428 474.01L762.178 472.198L762.991 472.885L769.491 472.76L770.866 473.635L772.053 472.573L772.428 469.323L775.116 466.635L775.053 465.323L775.866 463.323L772.991 459.948L772.928 458.385H770.491L767.928 455.823L767.428 452.573L769.616 446.948L769.053 444.448L771.116 442.26L774.553 435.573L772.991 433.385V430.885L773.803 429.948L773.866 428.448L776.241 424.698H778.241L782.491 423.323L784.616 425.51L787.366 426.073L788.991 425.573L789.116 422.823L790.741 420.823L793.803 419.01L794.741 416.698L793.116 415.823L791.178 413.698L791.241 410.823L791.866 410.198L794.491 411.135L798.241 410.01L799.303 411.26H800.741L801.741 409.26L803.053 408.51L803.616 406.198L805.053 405.073L805.366 401.385L804.866 399.76L802.991 399.385L800.366 396.76L799.366 396.198V393.823L801.741 391.76L804.116 386.135V384.26L803.178 380.073L804.178 378.698L805.803 378.635L809.241 375.51L811.178 375.448L812.678 374.323L814.741 373.51L815.616 368.698L817.366 367.948L816.428 366.51L816.366 364.823L814.491 362.448L814.241 360.76L815.991 358.323L820.741 356.76L822.803 353.948L823.928 352.698L826.053 352.573L826.616 350.26L825.428 349.573L824.616 348.198L826.116 344.385L826.178 340.135L824.366 338.698H823.303L821.948 338.113L820.401 338.157L818.236 339.262L817.573 341.074L815.319 343.726L814.214 344.212L810.06 344.3L807.452 348.631L808.734 350.753L808.115 352.52L806.038 352.476L804.27 353.493H802.326L801.265 354.288L799.365 354.376L796.536 355.923L793.664 354.332L790.879 354.2L790.835 351.504L789.996 350.576L787.918 350.399L787.83 349.294L778.549 349.25L772.76 345.935L770.683 346.554L767.059 343.947L765.91 343.991L764.54 343.195L762.065 343.24L760.12 340.765L760.872 336.522L760.12 335.373V333.473L758.794 331.837L768.606 325.96L769.003 324.59L768.031 322.159L770.019 319.787L769.8 317.819L768.385 315.707L767.987 311.906L762.639 312.613L760.164 311.464L758.618 312.348L755.347 309.21L742.575 307.265L735.018 301.564L733.736 302.934L731.482 303.553L728.698 298.603L726.71 297.322L725.119 295.333L723.616 294.935L720.928 295.698L719.053 298.26V299.885L716.866 301.885L716.803 305.01Z" fill="#FFE7C4" stroke="#0C0101"/>
<path id="hb" d="M887.889 213.136L888.296 211.378L886.421 209.69L886.483 208.503L885.483 207.503L884.421 202.69L881.296 197.003L879.421 196.065L877.608 196.19L877.546 198.253L876.546 200.503L874.296 203.753L873.171 204.628L872.233 206.315L870.671 205.44L868.608 201.378L869.921 199.44L870.546 197.19L868.483 197.065L867.296 195.003L866.108 195.065L865.108 192.628L866.421 188.69L862.421 188.503L860.483 185.69L857.858 183.815L855.796 183.315L853.358 184.69L851.233 184.94L851.108 190.815L847.546 194.315L846.046 195.128L844.796 197.065L842.671 197.19L841.671 196.315H839.546L838.296 193.94L834.921 193.378L833.733 192.003L833.796 189.565L827.796 189.628L823.483 184.565L819.296 185.878L813.608 184.628L813.358 182.878L811.046 180.753L810.858 178.378L806.983 175.378L800.296 172.19V164.815L801.171 161.878L801.046 156.94L802.421 154.815L802.671 151.003L801.171 150.378L801.108 146.003L802.296 143.94L802.358 142.378L800.671 140.69L797.546 140.753L795.296 139.815L793.546 142.128L791.796 142.815H784.671L782.921 143.065L782.358 144.253L780.671 144.315L780.046 145.315L767.608 145.19L763.421 147.44L760.358 148.44L759.046 147.378L758.921 145.253L754.546 142.565V141.003L752.358 141.065L748.171 137.94H745.983L744.546 136.503H742.796L741.171 138.534L738.354 137.429L737.328 140.778L734.176 145.19L734.399 146.54L738.247 146.702L738.158 148.052L736.694 149.277L734.73 149.501L732.953 151.601L732.864 158.201L731.024 158.738L730.81 160.087L729.721 160.187L729.194 161.537L730.105 164.449L731.516 164.986L731.489 166.648L732.587 167.935L731.06 170.785L730.596 173.947L728.819 176.859L727.23 182.646L725.891 183.996L724.875 182.561L721.976 182.226L720.292 183.476L720.862 189.172L720.058 190.341L717.879 190.948L715.575 189.867L711.077 195.236L706.235 197.826L705.621 200.456L701.341 200.443L700.854 203.712L702.431 204.355L703.632 205.812L702.5 207.325L700.243 205.775L699.486 203.788L697.229 203.863L696.042 204.739L695.467 210.263L696.837 211.501L696.749 213.976L699.268 217.29L700.682 217.379L703.776 220.119L708.46 220.163L710.405 218.837L712.305 218.616L714.206 217.069L715.355 218.13L717.564 218.439L720.349 221.002L721.807 224.052L721.188 226.173L722.205 229.576L720.039 233.288L720.128 235.145L721.851 237.045L721.895 238.68L723.575 239.343L722.072 241.906L721.984 245.972L723.221 247.475L723.265 251.187L724.282 253.662L724.238 256.137L725.696 259.098L725.431 261.131L726.226 262.943L726.138 266.08L727.773 267.804L726.933 292.022L723.752 293.525L723.619 294.939L725.122 295.337L726.713 297.326L728.701 298.607L731.485 303.557L733.739 302.938L735.021 301.568L742.578 307.269L755.35 309.214L758.621 312.352L760.168 311.468L762.642 312.617L767.99 311.91L768.388 315.711L769.803 317.823L770.022 319.791L768.034 322.163L769.006 324.594L768.609 325.964L758.797 331.841L760.123 333.477V335.377L760.875 336.526L760.123 340.769L762.068 343.244L764.543 343.199L765.913 343.995L767.062 343.951L770.686 346.558L772.763 345.939L778.552 349.254L787.833 349.298L787.921 350.403L789.999 350.58L790.838 351.508L790.882 354.204L793.667 354.336L796.539 355.927L799.368 354.38L801.268 354.292L802.329 353.497H804.273L806.041 352.48L808.118 352.524L808.737 350.757L807.455 348.635L810.063 344.304L814.217 344.216L815.322 343.73L817.576 341.078L818.239 339.266L820.404 338.161L821.951 338.117L821.863 335.907L823.63 333.874L825.663 333.653L828.934 330.118L828.845 327.997L829.994 326.759V324.77L832.911 321.544L836.756 319.114L841.706 318.981L843.341 314.252V310.628L844.225 309.214L844.136 307.358L845.153 305.634L848.158 303.513L850.81 302.01L851.384 298.828L850.942 295.425L849.219 294.055L849.926 292.42L849.882 290.343L851.738 287.294L852.224 285.791L854.699 283.67L854.743 281.151L853.108 279.295L855.141 277.041L855.052 274.566L856.334 273.77L857.66 270.721L859.295 268.423L859.339 266.832L861.903 262.81V261.042L865.217 259.142L867.338 258.965L868.708 258.17L871.007 259.849L872.774 259.23L874.763 254.59L875.072 247.873L873.879 245.265L874.763 243.983L871.89 241.685L870.697 237.266L871.404 235.454L870.874 232.493L872.377 231.256L872.332 228.648L876.133 224.892L877.768 226.129L879.89 224.405L877.857 222.019L879.315 220.34L883.027 219.279L886.695 215.036L887.889 213.136Z" fill="#FFE7C4" stroke="#0C0101"/>
<path id="szszb" d="M881.741 40.5726L879.902 41.5638L879.117 45L879.082 47.7487L877.918 49.014L878.003 50.4043L875.65 53.1696L875.485 57.1849L873.008 56.6064L872.218 58.2154L872.178 60.3245L871.076 60.996L869.697 59.4552L867.25 59.0733L866.124 57.4718L862.398 61.3694L860.271 61.3648L859.944 63.4102L855.806 67.5805L854.042 68.5008L854.028 70.6711L851.046 73.3571L848.438 71.8555L845.893 73.6665L842.161 74.1024L840.725 75.8353L838.914 74.1931L837.041 74.6759L835.733 77.3744L834.322 77.4464L834.379 79.8791L832.525 80.3827L831.918 82.3462L829.676 82.4655L828.808 83.1473L825.066 83.1416L823.386 84.0108L819.519 83.4426L817.589 84.9994L807.971 85.1187L806.666 83.3629L805.174 83.0916L802.807 81.6327L801.252 83.6739L797.322 84.465L794.017 87.2718L791.479 90.0903L790.087 88.1411L788.595 88.3228L788.269 89.9925L786.222 90.4296L785.847 89.0989L784.352 88.2546L782.799 89.9311L782.181 91.9556L780.583 92.4979L780.572 96.719L781.276 98.7949L778.73 101.621L780.707 105.031L782.559 105.253L784.411 107.787L782.764 109.26L784.768 111.346L784.273 113.037L782.477 113.982L782.253 116.891L779.405 116.801L778.471 117.412L779.695 118.871L779.743 120.211L777.761 121.554L776.278 120.459L771.171 120.677L770.563 122.52L767.815 123.394L766.942 121.643L762.944 121.268L762.196 120.017L761.073 120.703L758.512 120.328L756.014 116.639L752.641 119.764L752.643 122.575L751.082 123.949L749.084 122.574L744.725 122.214L743.991 119.729L740.507 119.932L739.086 118.948L737.84 121.313L736.657 121.803L735.849 123.106L733.916 123.971L732.296 126.399L732.238 129.452L734.992 132.567L735.059 135.057L737.595 135.907L738.381 137.444L741.178 138.541L742.803 136.51H744.553L745.991 137.948H748.178L752.366 141.073L754.553 141.01V142.573L758.928 145.26L759.053 147.385L760.366 148.448L763.428 147.448L767.616 145.198L780.053 145.323L780.678 144.323L782.366 144.26L782.928 143.073L784.678 142.823H791.803L793.553 142.135L795.303 139.823L797.553 140.76L800.678 140.698L802.366 142.385L802.303 143.948L801.116 146.01L801.178 150.385L802.678 151.01L802.428 154.823L801.053 156.948L801.178 161.885L800.303 164.823V172.198L806.991 175.385L810.866 178.385L811.053 180.76L813.366 182.885L813.616 184.635L819.303 185.885L823.491 184.573L827.803 189.635L833.803 189.573L833.741 192.01L834.928 193.385L838.303 193.948L839.553 196.323H841.678L842.678 197.198L844.803 197.073L846.053 195.135L847.553 194.323L851.116 190.823L851.241 184.948L853.366 184.698L855.803 183.323L857.866 183.823L860.491 185.698L862.428 188.51L866.428 188.698L865.116 192.635L866.116 195.073L867.303 195.01L868.491 197.073L870.553 197.198L869.928 199.448L868.616 201.385L870.678 205.448L872.241 206.323L873.178 204.635L874.303 203.76L876.553 200.51L877.553 198.26L877.616 196.198L879.428 196.073L881.303 197.01L884.428 202.698L885.491 207.51L886.491 208.51L886.428 209.698L888.303 211.385L889.491 211.073L890.866 212.26H893.491L894.866 210.948L894.803 209.323L896.241 208.26V204.76L897.553 202.885L897.491 199.76L900.116 197.448L900.928 195.823L900.491 191.073L901.678 189.698L903.428 189.635L904.678 189.135L905.803 187.51L905.678 182.635L906.241 180.573L908.678 181.823L910.616 179.698L912.803 178.948L914.241 177.823L914.928 175.635L916.116 174.135L917.991 176.135L919.866 176.073L921.053 177.448L923.616 177.323L925.428 176.26L926.303 177.385L929.678 177.323L929.303 175.26L930.428 172.76L930.491 168.198L931.678 165.76L931.616 164.198L933.991 164.26L935.616 162.76L937.053 162.635L947.553 170.198L956.241 170.135V168.76L959.366 168.885L959.928 168.01L961.678 168.698L962.366 167.26L964.241 167.385L964.303 166.323H965.616L967.053 165.323L967.178 163.385L969.116 162.01L969.053 159.948L969.991 157.26L972.116 154.823L973.241 155.698L977.178 155.573L979.241 153.198V149.635L977.366 149.323L976.866 148.573L978.303 145.51L977.053 143.135H980.616L982.491 142.573L986.678 139.448H989.678L992.803 132.948L996.053 128.26L994.366 126.073L992.053 125.073L991.991 123.823H989.803L987.991 121.573V119.885L991.053 116.573L991.116 114.885L992.053 113.51V107.823L990.678 106.698L989.678 104.823V102.823L988.116 101.635H985.928L985.991 99.6351L984.678 98.5101V96.0101L983.928 94.6976L982.241 94.6351L981.366 95.6976L980.241 94.4476L978.241 94.3851L976.866 96.0101L975.428 95.9476L974.366 94.6976L971.928 94.4476L969.928 95.6351L968.428 95.5726L965.241 98.8226L963.928 98.7601L962.991 99.8851L962.616 101.01H961.053L959.616 99.7601H955.991L954.241 98.6351L951.428 98.5726L950.428 97.5726L950.741 94.5726L949.741 91.3851L949.616 88.6351L948.553 87.1976L946.741 86.4476V84.9476L945.428 83.2601L945.241 81.6351L946.491 79.8226L945.553 78.3851L943.803 78.2601L943.116 76.5101L939.741 75.0101L938.678 73.4476L937.428 72.6351L938.303 71.5101L937.053 70.0101L935.491 69.4476L935.428 67.9476L934.178 66.7601L932.303 68.1976L930.741 68.1351L930.178 69.5726L928.553 69.8226L926.553 68.0726L923.428 67.5726L921.553 68.0101L921.053 69.5101L918.803 71.0726L916.866 70.2601L917.053 68.2601L916.053 67.3226L915.928 65.6976L913.553 63.9476L912.741 62.3851L911.803 58.1976V56.5726L908.178 52.9476L907.991 48.8226L908.866 46.8851L907.616 45.9476L906.366 46.8851L904.866 45.8226L903.303 45.8851L901.241 44.6976L900.053 45.8226L900.241 44.0726L899.178 43.4476L898.678 41.2601L897.678 40.0726L899.366 37.5726L899.428 35.7601L900.178 34.1351L898.991 33.5726L897.053 35.3851L894.803 33.0726L893.241 32.9476L892.428 31.7601L891.178 31.3226L888.803 33.6976L886.678 33.8851L885.491 35.0101L884.178 35.1351L884.241 37.3851L881.991 39.1351L881.741 40.5726Z" fill="#FFE7C4" stroke="#0C0101"/>
<path id="baz" d="M597.978 102.132L594.908 100.959L590.901 100.911L589.456 102.051L586.887 99.3315L584.81 98.6881L582.324 95.1908L582.676 93.5605L584.465 93.0553L585.505 91.7376L583.877 90.9791L585.374 89.0956L587.497 89.0247L589.056 87.5162L588.928 86.0702L591.863 83.7493L593.61 83.5533L593.67 80.9823L592.961 79.729L594.002 79.1633L594.044 76.91L597.46 76.9067L599.373 78.3046L601.973 78.3275L602.78 76.6926L603.836 76.4327L603.955 74.9228L606.261 74.7879L608.299 71.2483L610.335 72.1736L611.87 72.2238L613.718 74.2115L617.004 74.9493L619.386 71.8419L621.184 71.2838L622.233 67.1632L625.781 63.2302L627.517 62.3596L627.524 58.8147L629.344 57.2699L629.203 55.3252L631.625 53.8179L633.234 50.9357L631.905 47.8659L633.53 46.087L634.091 43.558L633.465 40.654L637.673 37.2672L637.755 35.693L639.15 33.9937L640.499 33.522L641.473 31.9878L640.822 30.7661L641.733 29.2319L643.155 29.0838L645.14 25.1232L646.625 25.2252L646.734 19.5146L644.986 17.1098L646.05 15.6425L647.427 15.0503L649.529 16.1061L650.882 15.412L651.359 14.0304L654.211 13.3987L657.157 14.5327L658.729 12.9792L661.362 13.0507L662.183 11.7472L665.149 11.197L667.426 9.52185L671.392 9.40917L673.544 7.48398L676.01 7.05879L678.6 7.7586L683.878 5.58341L690.155 5.53322L692.253 4.63171L696.124 8.8539L699.12 10.4511L705.212 8.49969L706.804 10.1108L706.987 12.0205L711.796 16.2427L715.417 16.9024L720.542 14.3798L722.603 15.7322L727.102 15.7096L727.476 16.437L729.522 16.4301L732.006 18.4856L731.302 20.4162L732.597 22.4092L734.291 22.4264L735.86 21.8811L736.867 19.3983L738.061 18.2279L738.614 16.3701L741.855 15.5123L743.033 16.217L748.649 12.3591L751.014 11.6263L755.693 14.2685L758.933 14.4107L759.712 15.0243L762.054 12.8255L761.458 11.4392L762.487 10.2404L762.555 7.72628L764.499 6.7122L771.756 6.38563L773.507 5.39774L775.321 6.84735L776.636 6.73445L777.575 5.37156L777.694 2.99828L779.814 1L781.309 1.18922L782.429 3.12844L786.97 5.92704L788.887 5.91313L791.429 8.39923L791.47 10.0103L792.512 10.9547L792.314 13.5806L793.679 15.2064L795.043 15.3323L795.533 16.3331L797.022 16.3965L798.199 17.4599L800.65 17.3195L801.788 15.429L803.238 15.2886L804.251 16.6482L805.241 16.5866L805.244 18.0342L806.498 18.6694L806.533 25.492L810.505 31.3147L812.052 34.5108L814.039 36.4498L814.012 40.7725L819.421 43.8451L819.75 45.8793L818.675 47.2709L820.808 47.4187L821.768 49.8553L823.237 50.9079L825.143 50.023L828.424 52.2006L833.143 52.1907L833.201 51.0281L836.697 53.4904L837.006 52.4528L838.815 52.4152L838.924 47.0772L841.221 46.6141L842.58 48.2761L845.126 46.9068L846.423 46.7876L847.345 45.9183L849.674 45.3478L851.513 46.6541L853.243 43.5149L855.099 43.3132L856.517 42.1115L859.461 42.2016L860.938 43.1172L865.11 40.373L867.747 40.3588L868.446 41.7821L870.52 41.7054L873.157 40.9412L874.731 41.2395L874.805 42.6628L877.942 42.1486L879.891 41.5719L879.106 45.0081L879.072 47.7568L877.907 49.0221L877.992 50.4124L875.639 53.1777L875.474 57.193L872.997 56.6146L872.207 58.2236L872.167 60.3327L871.065 61.0042L869.686 59.4633L867.24 59.0815L866.113 57.48L862.387 61.3776L860.26 61.373L859.933 63.4183L855.795 67.5887L854.031 68.509L854.017 70.6793L851.035 73.3652L848.427 71.8637L845.882 73.6746L842.15 74.1106L840.714 75.8434L838.904 74.2012L837.03 74.6841L835.722 77.3826L834.311 77.4545L834.369 79.8873L832.515 80.3909L831.907 82.3544L829.665 82.4737L828.797 83.1554L825.055 83.1497L823.375 84.019L819.508 83.4508L817.578 85.0075L807.96 85.1268L806.656 83.3711L805.163 83.0997L802.796 81.6409L801.241 83.682L797.311 84.4732L794.006 87.28L791.469 90.0984L790.076 88.1492L788.584 88.331L788.259 90.0007L786.211 90.4377L785.836 89.107L784.341 88.2628L782.789 89.9392L782.17 91.9637L780.572 92.506L780.562 96.7271L781.265 98.8031L778.719 101.629L780.696 105.039L782.548 105.261L784.401 107.796L782.753 109.268L784.757 111.354L784.262 113.046L782.466 113.99L782.243 116.9L779.394 116.809L778.46 117.421L779.684 118.879L779.732 120.219L777.75 121.562L776.267 120.467L771.16 120.685L770.552 122.528L767.804 123.402L766.931 121.652L762.933 121.276L762.185 120.025L761.062 120.712L758.501 120.336L756.003 116.647L752.63 119.772L752.632 122.583L751.071 123.958L749.073 122.582L744.714 122.222L743.98 119.738L740.496 119.94L739.075 118.956L737.829 121.321L736.646 121.811L735.838 123.114L733.905 123.979L732.285 126.407L732.227 129.46L734.981 132.575L735.048 135.066L737.584 135.915L738.37 137.452L737.343 140.802L734.191 145.214L734.415 146.564L738.263 146.726L738.174 148.076L736.709 149.3L734.745 149.525L732.968 151.624L732.879 158.224L731.04 158.761L730.826 160.111L729.736 160.211L729.21 161.56L730.12 164.472L731.531 165.01L731.504 166.672L732.603 167.959L731.076 170.808L730.612 173.971L728.835 176.883L727.246 182.67L725.906 184.02L724.89 182.585L721.991 182.249L720.307 183.5L720.878 189.196L720.074 190.365L717.895 190.972L715.591 189.891L711.092 195.26L706.25 197.849L705.637 200.479L701.356 200.466L700.87 203.735L702.446 204.379L703.648 205.835L702.516 207.348L700.258 205.799L699.501 203.812L697.244 203.887L695.987 201.775L691.917 198.788L687.802 201.138L687.431 203.906L682.873 201.488L678.896 197.49L675.503 198.257L674.102 197.565L672.782 198.379L668.695 198.338L665.838 196.075L664.012 195.982L661.704 192.688L659.188 192.485L659.109 190.032L661.468 186.766L659.639 184.501L657.498 183.922L657.294 182.469L653.903 180.079L652.074 179.501L651.472 177.118L648.244 172.297L648.205 169.915L649.915 167.782L650 165.274L648.21 162.641L648.107 159.842L645.691 159.356L642.337 158.182L641.975 156.727L639.733 154.508L641.8 151.58L646.214 150.721L647.602 148.795L647.614 147.026L649.506 146.25L647.091 143.43L644.427 142.047L642.449 139.352L640.097 137.594L643.932 133.399L644.665 125.821L645.813 124.875L645.774 122.305L643.796 119.61L646.819 115.289L644.342 111.532L644.427 106.586L643.2 105.266L643.348 102.696L641.058 101.563L641.141 99.6987L638.849 97.772L636.813 98.7757L634.339 98.8797L633.482 97.9029L631.149 99.0498L631.047 101.682L629.386 103.434L629.338 104.752L627.577 105.981L626.943 110.594L625.71 110.458L624.159 108.849L622.821 108.427L619.878 104.836L618.367 105.878L616.606 105.232L615.29 106.791L615.158 109.487L614.158 110.462L611.57 110.541L611.181 111.688L606.488 111.567L605.084 110.403L603.566 110.178L603.501 108.966L601.367 107.673L599.443 107.609L598.869 106.51L598.898 103.964L597.978 102.132Z" fill="#FFE7C4" stroke="#0C0101"/>
</g>
</svg>
